<svg width="87" height="66" viewBox="0 0 87 66" fill="none" xmlns="http://www.w3.org/2000/svg">
<path fill-rule="evenodd" clip-rule="evenodd" d="M54.3088 1.88191L29.0948 30.0052C28.2846 30.9088 28.9259 32.3452 30.1395 32.3452H36.1719C38.8681 32.3452 40.8693 34.8445 40.2796 37.4755L34.5922 62.8498C34.2761 64.2603 36.0414 65.1697 37.0063 64.0934L62.1135 36.0893C62.9236 35.1857 62.2823 33.7494 61.0687 33.7494H55.3137C52.6301 33.7494 50.6317 31.2721 51.1993 28.6493L56.725 3.11542C57.0296 1.70805 55.27 0.809756 54.3088 1.88191ZM53.264 0.945203C55.1864 -1.1991 58.7056 0.597452 58.0965 3.41222L52.5707 28.9461C52.1923 30.6947 53.5246 32.3461 55.3137 32.3461H61.0687C63.4959 32.3461 64.7785 35.2188 63.1582 37.026L38.0511 65.0302C36.1213 67.1826 32.5907 65.3639 33.223 62.5429L38.9103 37.1686C39.3035 35.4146 37.9694 33.7484 36.1719 33.7484H30.1395C27.7123 33.7484 26.4297 30.8757 28.05 29.0685L53.264 0.945203ZM72.2542 32.3749C72.2542 31.9875 72.5684 31.6733 72.9558 31.6733H86.2983C86.6858 31.6733 86.9999 31.9875 86.9999 32.3749C86.9999 32.7624 86.6858 33.0766 86.2983 33.0766H72.9558C72.5684 33.0766 72.2542 32.7624 72.2542 32.3749ZM14.0441 33.3022C14.4316 33.3022 14.7457 33.6164 14.7457 34.0039C14.7457 34.3913 14.4316 34.7055 14.0441 34.7055H0.701609C0.314121 34.7055 0 34.3913 0 34.0039C0 33.6164 0.314121 33.3022 0.701609 33.3022H14.0441ZM64.5922 16.1581C64.4323 15.8052 64.5778 15.3672 64.917 15.18L78.4342 7.71889C78.7734 7.53164 79.178 7.66599 79.3379 8.01896C79.4978 8.37193 79.3524 8.80986 79.0131 8.99712L65.4959 16.4582C65.1567 16.6455 64.7521 16.5111 64.5922 16.1581ZM22.0834 16.8089C22.4227 16.9961 22.5681 17.4341 22.4082 17.7871C22.2483 18.14 21.8437 18.2744 21.5045 18.0871L7.9873 10.626C7.64806 10.4388 7.50265 10.0008 7.66252 9.64786C7.82238 9.29489 8.22699 9.16055 8.56623 9.3478L22.0834 16.8089ZM64.5922 49.993C64.4323 50.346 64.5778 50.7839 64.917 50.9712L78.4342 58.4323C78.7734 58.6195 79.178 58.4852 79.3379 58.1322C79.4978 57.7792 79.3524 57.3413 79.0131 57.154L65.4959 49.6929C65.1567 49.5057 64.7521 49.64 64.5922 49.993ZM22.0834 52.6001C22.4227 52.4128 22.5681 51.9749 22.4082 51.6219C22.2483 51.2689 21.8437 51.1346 21.5045 51.3219L7.9873 58.783C7.64806 58.9702 7.50265 59.4081 7.66252 59.7611C7.82238 60.1141 8.22699 60.2484 8.56623 60.0612L22.0834 52.6001Z" fill="white"/>
</svg>
