<svg width="24" height="25" viewBox="0 0 24 25" fill="none" xmlns="http://www.w3.org/2000/svg">
<path d="M18.4001 1.84004C16.5201 0.680013 14.36 0 12 0V1.84004H18.4001Z" fill="#ED4C5C"/>
<path d="M12 3.67988H20.6402C19.9602 2.99987 19.2001 2.35985 18.4001 1.83984H12V3.67988Z" fill="white"/>
<path d="M12 5.51972H22.1202C21.6802 4.83971 21.2002 4.2397 20.6802 3.67969H12V5.51972Z" fill="#ED4C5C"/>
<path d="M12 7.35957H23.0802C22.8002 6.71955 22.4802 6.07954 22.1202 5.51953H12V7.35957Z" fill="white"/>
<path d="M12 9.20136H23.6802C23.5202 8.56135 23.3202 7.96134 23.0802 7.36133H12V9.20136Z" fill="#ED4C5C"/>
<path d="M12 11.0822H23.9602C23.9202 10.4422 23.8002 9.8422 23.6802 9.24219H12V11.0822Z" fill="white"/>
<path d="M23.9602 11.0801H12V12.0001H-0.000244141C-0.000244141 12.3201 -0.000244179 12.6001 0.0397566 12.9201H23.9602C24.0002 12.6001 24.0002 12.3201 24.0002 12.0001C24.0002 11.6801 24.0002 11.3601 23.9602 11.0801Z" fill="#ED4C5C"/>
<path d="M0.319739 14.758H23.6802C23.8402 14.158 23.9202 13.558 23.9602 12.918H0.0397339C0.0797347 13.518 0.159736 14.158 0.319739 14.758Z" fill="white"/>
<path d="M0.919836 16.6018H23.0803C23.3203 16.0017 23.5203 15.4017 23.6803 14.7617H0.319824C0.479827 15.4017 0.679831 16.0017 0.919836 16.6018Z" fill="#ED4C5C"/>
<path d="M1.87976 18.4416H22.1201C22.4802 17.8416 22.8002 17.2416 23.0802 16.6016H0.919739C1.19974 17.2416 1.51975 17.8416 1.87976 18.4416Z" fill="white"/>
<path d="M3.31985 20.2795H20.6802C21.2002 19.7195 21.7202 19.0795 22.1202 18.4395H1.87982C2.27983 19.1195 2.79984 19.7195 3.31985 20.2795Z" fill="#ED4C5C"/>
<path d="M5.55993 22.1174H18.4402C19.2802 21.5974 20.0002 20.9574 20.6802 20.2773H3.31989C3.9999 20.9974 4.75991 21.5974 5.55993 22.1174Z" fill="white"/>
<path d="M11.9999 24.0011C14.36 24.0011 16.56 23.3211 18.4401 22.1211H5.55981C7.43985 23.3211 9.63989 24.0011 11.9999 24.0011Z" fill="#ED4C5C"/>
<path d="M5.59986 1.84004C4.75985 2.36005 3.99983 3.00006 3.31982 3.68007C2.75981 4.24008 2.2798 4.88009 1.87979 5.52011C1.51978 6.12012 1.15978 6.72013 0.919774 7.36014C0.679769 7.96015 0.479765 8.56016 0.319762 9.20018C0.159759 9.80019 0.0797574 10.4002 0.0397566 11.0402C-0.000244179 11.3602 -0.000244141 11.6802 -0.000244141 12.0002H12V0C9.63994 0 7.4799 0.680013 5.59986 1.84004Z" fill="#428BC1"/>
<path d="M9.19992 0.398438L9.39992 0.998449H9.99993L9.51993 1.39846L9.67993 1.99847L9.19992 1.63846L8.71991 1.99847L8.87991 1.39846L8.3999 0.998449H8.99992L9.19992 0.398438ZM10.7999 2.79848L11 3.3985H11.6L11.12 3.7985L11.28 4.39851L10.7999 4.03851L10.3199 4.39851L10.4799 3.7985L9.99993 3.3985H10.5999L10.7999 2.79848ZM7.59989 2.79848L7.79989 3.3985H8.3999L7.91989 3.7985L8.0799 4.39851L7.59989 4.03851L7.11988 4.39851L7.27988 3.7985L6.79987 3.3985H7.39988L7.59989 2.79848ZM9.19992 5.19853L9.39992 5.79854H9.99993L9.51993 6.19855L9.67993 6.79856L9.19992 6.43855L8.71991 6.79856L8.87991 6.19855L8.3999 5.79854H8.99992L9.19992 5.19853ZM5.99986 5.19853L6.19986 5.79854H6.79987L6.31986 6.19855L6.47987 6.79856L5.99986 6.43855L5.51985 6.79856L5.67985 6.19855L5.19984 5.79854H5.79985L5.99986 5.19853ZM2.7998 5.19853L2.9998 5.79854H3.59981L3.1198 6.19855L3.27981 6.79856L2.7998 6.43855L2.31979 6.79856L2.47979 6.19855L1.99978 5.79854H2.59979L2.7998 5.19853ZM10.7999 7.59858L11 8.19859H11.6L11.12 8.5986L11.28 9.19861L10.7999 8.8386L10.3199 9.19861L10.4799 8.5986L9.99993 8.19859H10.5999L10.7999 7.59858ZM7.59989 7.59858L7.79989 8.19859H8.3999L7.91989 8.5986L8.0799 9.19861L7.59989 8.8386L7.11988 9.19861L7.27988 8.5986L6.79987 8.19859H7.39988L7.59989 7.59858ZM4.39983 7.59858L4.59983 8.19859H5.19984L4.71983 8.5986L4.87984 9.19861L4.39983 8.8386L3.91982 9.19861L4.07982 8.5986L3.59981 8.19859H4.19982L4.39983 7.59858ZM9.19992 9.99862L9.39992 10.5986H9.99993L9.51993 10.9986L9.67993 11.5987L9.19992 11.2386L8.71991 11.5987L8.87991 10.9986L8.3999 10.5986H8.99992L9.19992 9.99862ZM5.99986 9.99862L6.19986 10.5986H6.79987L6.31986 10.9986L6.47987 11.5987L5.99986 11.2386L5.51985 11.5987L5.67985 10.9986L5.19984 10.5986H5.79985L5.99986 9.99862ZM2.7998 9.99862L2.9998 10.5986H3.59981L3.1198 10.9986L3.27981 11.5987L2.7998 11.2386L2.31979 11.5987L2.47979 10.9986L1.99978 10.5986H2.59979L2.7998 9.99862ZM3.91982 4.39851L4.39983 4.03851L4.87984 4.39851L4.67983 3.7985L5.15984 3.3985H4.55983L4.39983 2.79848L4.19982 3.3985H3.63981L4.11982 3.7585L3.91982 4.39851ZM0.719756 9.19861L1.19977 8.8386L1.67977 9.19861L1.47977 8.5986L1.95978 8.19859H1.39977L1.19977 7.59858L0.999762 8.19859H0.599754C0.599754 8.23859 0.559753 8.27859 0.559753 8.31859L0.879759 8.55859L0.719756 9.19861Z" fill="white"/>
</svg>
