<svg width="736" height="620" viewBox="0 0 736 620" fill="none" xmlns="http://www.w3.org/2000/svg">
<path d="M611.388 41.1616C608.979 41.1616 599.341 45.5119 594.823 47.6871L593.317 48.1883C590.908 43.771 578.259 34.9699 572.235 31.1216C577.455 15.862 575.414 10.3739 573.741 9.53726C569.324 4.71843 550.818 1.17124 542.117 0C540.511 0 538.436 2.00784 537.6 3.01177C536.395 3.8149 531.409 12.3817 529.066 16.5647L501.961 22.5882C500.354 18.5719 494.933 12.2146 492.423 9.53807C489.612 5.92395 486.232 6.35901 484.894 7.02831C480.075 6.62674 465.819 16.5656 459.294 21.5852C456.081 23.1915 456.617 26.2701 457.286 27.6087C457.286 30.4197 461.302 39.4885 463.31 43.6715C456.884 46.884 448.251 59.3996 444.737 65.2558C434.698 61.6417 427.838 62.746 425.662 63.7499C418.434 70.175 415.958 87.1748 415.623 94.8715C415.222 97.2809 416.46 98.8872 417.129 99.3891C418.735 101.799 427.838 105.413 432.188 106.919C431.385 113.745 433.192 125.491 434.196 130.511H545.129V201.287C546.334 201.287 550.985 199.949 553.161 199.279C553.964 202.09 559.519 208.817 562.196 211.828C563.802 214.639 566.212 214.673 567.216 214.338C572.838 213.937 587.963 204.132 594.823 199.279C596.831 198.075 597.668 194.762 597.835 193.256C597.835 189.642 593.485 180.707 591.31 176.691C597.735 172.675 605.03 160.294 607.874 154.605L608.878 155.107C609.681 155.508 616.91 156.613 620.423 157.115C625.644 157.918 629.291 156.111 630.463 155.107C634.88 151.493 638.327 134.526 639.498 126.495C639.9 124.086 638.996 121.81 638.494 120.973C636.888 119.367 625.108 114.281 619.42 111.938C620.223 103.907 617.077 91.1904 615.404 85.8362L616.408 85.3342C621.628 82.9248 628.287 77.6375 630.965 75.295C633.374 73.2872 632.972 69.7734 632.471 68.2676C631.667 60.2362 621.427 47.5198 616.408 42.1655C615.203 40.1577 612.559 40.6596 611.388 41.1616Z" fill="#62C1C5"/>
<path d="M493.929 33.6315C503.634 29.2812 528.263 22.5884 549.145 30.6197" stroke="white" stroke-width="0.626894"/>
<circle cx="525.553" cy="111.938" r="42.6667" fill="white"/>
<circle cx="525.553" cy="111.938" r="60.4238" stroke="white" stroke-width="0.626894"/>
<path d="M611.89 116.455C611.054 130.677 602.554 163.539 575.247 181.208C568.889 185.391 554.064 193.857 545.631 194.259C537.199 194.661 541.114 194.426 544.126 194.259" stroke="white" stroke-width="0.626894"/>
<path d="M611.62 281.408C610.307 280.544 603.494 279.458 600.252 279.024L599.252 278.757C599.523 275.485 595.786 266.152 593.883 261.895C602.201 255.451 603.057 251.728 602.445 250.672C601.766 246.461 592.953 237.891 588.631 234.133C587.756 233.557 585.905 233.907 585.089 234.154C584.145 234.159 578.355 237.04 575.578 238.479L558.646 232.041C559.211 229.276 558.536 223.867 558.129 221.508C557.893 218.53 555.895 217.555 554.925 217.44C552.443 215.493 541.11 215.797 535.753 216.192C533.426 215.915 532.614 217.785 532.499 218.755C531.491 220.286 530.427 226.669 530.021 229.669C525.367 229.115 516.173 232.839 512.158 234.771C507.983 229.201 503.848 227.342 502.303 227.109C496.059 228.018 488.613 236.394 485.67 240.469C484.587 241.638 484.686 242.957 484.871 243.471C484.882 245.36 488.546 250.594 490.377 252.975C487.491 256.408 484.263 263.457 483.01 266.552L543.466 306.338L518.083 344.909C518.739 345.341 521.754 346.28 523.18 346.695C522.609 348.515 523.224 354.173 523.603 356.775C523.47 358.883 524.771 359.765 525.438 359.943C528.646 361.74 540.406 361.822 545.885 361.637C547.411 361.701 549.055 360.196 549.686 359.435C550.983 357.465 551.816 351.036 552.071 348.067C557.013 348.183 565.429 344.052 569.019 341.972L569.387 342.605C569.68 343.112 573.223 346.306 574.958 347.84C577.515 350.15 580.151 350.473 581.149 350.346C584.853 349.961 592.816 341.951 596.335 337.994C597.418 336.825 597.742 335.261 597.768 334.625C597.469 333.173 592.874 326.177 590.613 322.86C593.931 318.771 596.778 310.713 597.786 307.195L598.513 307.281C602.222 307.841 607.748 307.347 610.047 307.031C612.08 306.801 613.121 304.742 613.388 303.741C615.831 299.076 614.811 288.474 613.995 283.755C614.059 282.229 612.438 281.555 611.62 281.408Z" fill="#62C1C5"/>
<path d="M550.309 235.177C557.158 236.286 572.98 241.472 581.48 253.338" stroke="white" stroke-width="0.626894"/>
<circle cx="539.46" cy="289.193" r="27.8356" transform="rotate(33.3485 539.46 289.193)" fill="white"/>
<circle cx="539.459" cy="289.194" r="39.3114" transform="rotate(33.3485 539.459 289.194)" stroke="white" stroke-width="0.626894"/>
<path d="M584.891 322.622C579.334 330.073 562.916 344.933 541.698 344.769C536.733 344.768 525.617 344.066 520.877 341.26C516.138 338.454 518.355 339.731 520.057 340.72" stroke="white" stroke-width="0.626894"/>
<path d="M366.934 75.7975C373.76 87.0414 372.455 116.624 370.95 130.009H244.455C274.975 80.6163 338.824 73.2877 366.934 75.7975Z" fill="#18898D"/>
<path d="M334.809 130.508L371.452 88.3437" stroke="white" stroke-width="0.626894"/>
<path d="M273.454 130.699L269.927 103.404" stroke="white" stroke-width="0.626894"/>
<path d="M110.442 163.399C191.99 158.33 222.81 206.341 215.793 214.753C221.313 219.27 216.255 240.967 219.73 257.652L212.728 290.199L213.335 294.516C213.335 300.514 226.907 344.83 212.068 346.558C102.141 288.328 86.3472 214.093 110.442 163.399Z" fill="#E5D247"/>
<path d="M212.837 283.105L118.466 162.632L111.436 162.631L115.952 164.137L212.335 286.619L212.837 283.105Z" fill="white"/>
<path d="M167.152 226.883L174.18 172.671" stroke="white" stroke-width="0.626894"/>
<path d="M124.485 265.035L198.647 267.356" stroke="white" stroke-width="0.626894"/>
<path d="M187.462 499.192C176.98 491.25 169.488 467.64 167.053 456.828L151 462.56L163.833 504.052C167.831 511.791 167.93 520.936 167.48 524.541C166.639 525.418 168.133 562.057 168.985 580.267L179.084 580.267L187.392 526.267C188.681 520.18 187.975 505.681 187.462 499.192Z" fill="#0A3C5F"/>
<path d="M158.638 504.035C157.25 492.24 152.322 468.277 153.665 457.275H136.619L134.751 500.666C135.914 509.299 132.932 517.945 131.296 521.188C130.209 521.731 119.294 556.739 113.973 574.175L123.483 577.571L149.467 529.51C152.728 524.211 156.94 510.319 158.638 504.035Z" fill="#0A3C5F"/>
<path d="M122.395 577.122C120.04 576.263 115.271 574.545 115.03 574.545L113.484 580.837C113.751 583.426 117.715 583.038 119.663 582.848L119.683 582.846L122.395 577.122Z" fill="#E5B68C"/>
<path d="M135.53 184.22C157.951 185.224 203.495 177.695 206.306 139.545C202.96 98.3847 215.743 20.1792 293.648 36.6435" stroke="#72A4A7" stroke-width="0.940341" stroke-dasharray="3.13 3.13"/>
<path d="M114.448 239.936L224.377 576.751H230.903L120.471 239.936H114.448Z" fill="#65C1BA"/>
<path d="M172.173 240.437L282.102 577.253H288.628L178.196 240.437H172.173Z" fill="#65C1BA"/>
<path d="M269.553 532.578H214.338" stroke="#65C1BA" stroke-width="1.25379"/>
<path d="M259.514 498.445H204.298" stroke="#65C1BA" stroke-width="1.25379"/>
<path d="M248.471 464.312H193.256" stroke="#65C1BA" stroke-width="1.25379"/>
<path d="M234.416 430.18H179.201" stroke="#65C1BA" stroke-width="1.25379"/>
<path d="M223.373 396.047H168.157" stroke="#65C1BA" stroke-width="1.25379"/>
<path d="M215.342 362.916H160.126" stroke="#65C1BA" stroke-width="1.25379"/>
<path d="M204.298 329.785H149.082" stroke="#65C1BA" stroke-width="1.25379"/>
<path d="M192.252 297.66H137.036" stroke="#65C1BA" stroke-width="1.25379"/>
<path d="M181.208 264.529H125.992" stroke="#65C1BA" stroke-width="1.25379"/>
<path d="M174.181 240.441L64.2513 577.257H57.7258L168.157 240.441H174.181Z" fill="#0E3D5F"/>
<path d="M116.455 240.943L6.52598 577.759H0.000488281L110.432 240.943H116.455Z" fill="#0E3D5F"/>
<path d="M19.0748 533.084H74.2905" stroke="#0E3D5F" stroke-width="1.25379"/>
<path d="M29.1143 498.951H84.33" stroke="#0E3D5F" stroke-width="1.25379"/>
<path d="M40.157 464.818H95.3727" stroke="#0E3D5F" stroke-width="1.25379"/>
<path d="M54.212 430.686H109.428" stroke="#0E3D5F" stroke-width="1.25379"/>
<path d="M65.2555 396.553H120.471" stroke="#0E3D5F" stroke-width="1.25379"/>
<path d="M73.2867 363.422H128.502" stroke="#0E3D5F" stroke-width="1.25379"/>
<path d="M84.3303 330.291H139.546" stroke="#0E3D5F" stroke-width="1.25379"/>
<path d="M96.3767 298.166H151.592" stroke="#0E3D5F" stroke-width="1.25379"/>
<path d="M107.42 265.035H162.636" stroke="#0E3D5F" stroke-width="1.25379"/>
<path d="M118.965 158.245V155.233L110.487 152.226V133.258C109.684 131.25 107.159 131.258 106.112 131.82C104.506 133.025 104.237 136.445 105.914 136.66V157.743C107.119 160.152 111.436 161.089 113.444 161.256C117.459 161.658 118.798 159.416 118.965 158.245Z" fill="#E5A383"/>
<path d="M119.401 143.522C116.991 146.333 114.683 144.877 113.846 143.705C111.598 143.584 106.844 142.891 105.807 141.087L103.834 132.182C105.225 131.506 108.084 130.142 108.4 130.097C108.715 130.052 112.228 127.761 113.945 126.621L123.412 126.759C124.215 128.767 124.487 137.664 124.487 141.68C122.077 141.278 120.07 142.852 119.401 143.522Z" fill="#E5B690"/>
<path d="M113.946 143.688C114.749 144.893 116.957 144.859 117.961 144.691C119.969 141.88 123.303 141.336 124.474 141.67C123.671 142.072 123.315 146.03 123.483 147.704C123.884 148.507 124.989 149.377 125.49 149.711C126.695 154.53 124.654 156.07 123.483 156.237C121.073 156.237 113.778 153.56 110.432 152.221V133.147C109.629 131.54 107.755 131.473 106.918 131.641C105.312 132.042 104.91 134.151 104.91 135.155C104.91 135.958 105.579 136.493 105.914 136.66V146.7H104.408C104.007 144.29 102.902 132.31 102.4 126.621C101.196 121.802 106.249 119.594 108.926 119.092C114.949 121.501 123.817 120.43 127.499 119.594C129.105 122.003 127.833 124.948 126.997 126.119C125.792 127.324 117.794 126.956 113.946 126.621V143.688Z" fill="#222B54"/>
<path d="M140.549 162.262C136.533 157.443 136.534 151.721 137.036 149.713L130.008 149.211C129.607 150.416 130.51 156.573 131.012 159.25C131.815 162.061 134.526 164.772 136.534 165.274C139.345 165.675 140.382 163.433 140.549 162.262Z" fill="#65B8BE"/>
<path d="M137.036 149.713L133.522 149.211C133.12 155.234 137.554 162.764 139.06 164.772C140.064 164.27 140.566 162.931 140.566 162.262C139.06 160.756 136.031 154.732 137.036 149.713Z" fill="#62C1C5"/>
<path d="M154.102 131.139C148.48 135.556 133.096 139.667 126.738 141.173V149.71C141.998 148.907 151.631 153.926 154.55 155.312L154.102 131.139Z" fill="#A3D2D4"/>
<ellipse cx="154.604" cy="143.186" rx="4.01569" ry="12.0471" fill="#65B8BE"/>
<path d="M151.09 139.17C151.926 139.505 154.704 140.375 155.105 141.178V144.19C154.817 144.766 151.491 147.201 151.09 147.201C150.588 147.703 150.588 143.186 150.588 143.186C150.588 143.186 150.427 138.904 151.09 139.17Z" fill="#E5A611"/>
<path d="M123.233 143.184C124.036 141.979 125.91 141.343 126.746 141.176V149.709C124.738 149.709 123.567 148.705 123.233 148.203V143.184Z" fill="#E5A611"/>
<path d="M136.877 154.068H134.869V156.578H137.379L136.877 154.068Z" fill="#E5A611"/>
<path d="M82.3976 352.578V347.592H74.8945L74.8369 352.548C77.4613 355.043 80.9901 353.553 82.3976 352.578Z" fill="#E5B094"/>
<path d="M97.4093 358.829C90.3931 358.615 84.5207 354.495 82.4615 352.461C79.7593 354.276 76.2084 353.217 74.7708 352.461C72.7029 353.348 72.5616 356.289 72.7495 357.648V363.024H78.6812V361.128C82.1012 360.862 86.8665 362.281 88.8217 363.024H100.269C100.025 360.156 98.2609 359.032 97.4093 358.829Z" fill="#212855"/>
<path d="M123.12 352.768V347.579L115.617 347.338L115.56 352.737C118.184 355.232 121.713 353.742 123.12 352.768Z" fill="#E5B094"/>
<path d="M138.132 359.02C131.116 358.807 125.243 354.686 123.184 352.652C120.482 354.468 116.931 353.409 115.494 352.652C113.426 353.54 113.284 356.48 113.472 357.839V363.215H119.404V361.319C122.824 361.054 127.589 362.473 129.544 363.215H140.992C140.748 360.347 138.984 359.224 138.132 359.02Z" fill="#212855"/>
<path d="M125.769 347.59L125.483 229.016H86.0164C89.8858 241.407 78.665 313.468 72.6886 347.59H84.2854L107.151 276.341L113.954 347.59H125.769Z" fill="#18898D"/>
<path d="M111.143 258.296C112.645 254.736 114.608 236.822 115.395 228.797H86.2262C90.5764 250.555 78.6531 317.515 72.6886 347.788H84.2854L100.386 297.46C104.079 288.723 109.096 267.711 111.143 258.296Z" fill="#18898D"/>
<path d="M94.8853 232.715L89.0786 234.463L91.8326 241.089C92.2037 242.441 94.55 244.126 95.6767 244.8C95.6767 244.8 102.238 245.276 103.911 244.585C105.226 244.042 105.309 243.375 105.088 242.679L94.8853 232.715Z" fill="#E5A383"/>
<path d="M125.993 166.274C122.78 161.054 119.969 158.745 118.965 158.243C114.95 164.668 108.257 160.251 105.412 157.239C101.396 156.436 96.042 159.247 93.8669 160.753C85.8355 167.981 77.135 182.839 73.7887 189.365C70.9777 195.388 71.9481 200.575 72.7847 202.416C74.391 209.644 84.1625 226.844 88.8475 234.541L97.3808 232.031L96.3769 229.02H125.491V200.91L141.553 212.957C148.782 218.98 152.931 212.12 154.102 207.937C156.11 195.087 150.923 176.146 148.079 168.282H138.542C140.148 171.093 139.88 183.508 139.546 189.365C133.522 184.947 128 172.131 125.993 166.274Z" fill="#D8E5E5"/>
<path d="M103.906 175.812C99.8905 179.159 91.6584 186.755 90.8552 190.369C90.0186 191.708 88.4398 195.489 89.6445 199.907L97.2986 232.059" stroke="#A8D0D2" stroke-width="0.313447"/>
<path d="M125.615 173.303V229.02" stroke="#A8D0D2" stroke-width="0.313447"/>
<path d="M146.814 168.234H138.747L135.558 164.893C137.173 165.333 138.297 165.098 139.134 164.722L139.675 164.329L140.079 163.796C140.176 163.62 140.283 163.396 140.357 163.235C140.357 163.235 140.537 162.725 140.537 162.314C140.357 162.016 140.409 162.072 140.318 161.969L136.031 161.756C134.425 160.953 134.024 157.239 134.023 156.234C135.028 156.235 139.043 156.234 139.043 156.234C142.657 157.037 145.81 164.72 146.814 168.234Z" fill="#E5A383"/>
<path d="M212.33 130.51V565.208C214.739 576.452 226.05 578.594 231.405 578.259H531.075C541.918 577.456 544.963 568.889 545.13 564.706V130.51H212.33Z" fill="#1F2C53"/>
<path d="M520.033 175.686H239.938V520.031H520.033V175.686Z" fill="#62C1C5"/>
<circle cx="373.46" cy="557.178" r="13.7415" stroke="white" stroke-width="0.626894"/>
<circle cx="373.459" cy="557.176" r="12.0471" fill="#62C1C5"/>
<rect x="359.133" y="141.219" width="37.3021" height="7.96086" rx="3.98043" fill="#62C1C5"/>
<rect x="239.937" y="175.688" width="280.094" height="25.0981" fill="#00666B"/>
<rect x="249.977" y="182.717" width="94.3687" height="11.0431" fill="#D1E5E5"/>
<rect x="484.895" y="183.719" width="27.1059" height="11.0431" fill="#D1E5E5"/>
<rect x="252.988" y="184.723" width="4.01569" height="8.03138" fill="#72A5A7"/>
<circle cx="449.756" cy="188.738" r="5.01961" fill="#E5E5E5"/>
<circle cx="465.82" cy="188.738" r="5.01961" fill="#E5D446"/>
<path d="M496.942 330.293L269.554 339.83L264.032 487.407H503.97L496.942 330.293Z" fill="#18898D"/>
<rect x="300.173" y="388.518" width="184.722" height="15.0588" fill="#E5E5E5"/>
<path d="M484.393 357.397C419.807 356.895 290.134 355.891 288.126 355.891L294.652 376.973L484.393 375.969V357.397Z" fill="#E5E5E5"/>
<path d="M355.891 272.565L254.495 328.283L253.993 313.726L358.903 257.506L378.479 281.099L461.303 232.91L455.781 226.385L492.926 217.35L474.354 249.475L468.832 241.946L374.965 296.157L355.891 272.565Z" fill="#D1E5E5"/>
<rect x="326.275" y="416.627" width="70.2746" height="13.051" fill="#E5E5E5"/>
<path d="M567.718 209.322L567.216 204.807H561.193L562.197 207.818L567.718 209.322Z" fill="#E5AC8B"/>
<path d="M582.777 219.863C572.738 217.454 569.224 211.832 568.722 209.322C567.116 209.322 563.368 207.984 561.695 207.314C560.088 208.519 558.348 211.832 557.679 213.338L561.695 216.852L563.702 215.848L569.224 221.871H582.777C583.178 221.47 582.944 220.365 582.777 219.863Z" fill="#06626F"/>
<path d="M530.073 207.322L532.582 201.793L526.557 200.288L523.545 205.809L530.073 207.322Z" fill="#E5AC8B"/>
<path d="M544.126 217.352C534.087 214.942 530.573 209.32 530.071 206.811C528.465 206.811 524.717 205.472 523.044 204.803C521.437 206.007 519.697 209.32 519.028 210.826L523.044 214.34L525.051 213.336L530.573 219.36H544.126C544.528 218.958 544.293 217.854 544.126 217.352Z" fill="#06626F"/>
<path d="M530.982 108.428H494.432C491.621 122.884 500.623 128.841 505.475 130.012L545.632 131.518L524.55 199.785L535.091 202.796L548.644 170.671L559.185 204.804H568.723L559.185 144.569L567.217 125.996C568.421 121.981 566.38 118.969 565.209 117.965C561.595 115.556 541.189 110.603 530.982 108.428Z" fill="#0B3B60"/>
<path d="M567.398 118.406L580.035 81.2638L578.05 80.6767L565.979 116.336L535.623 109.516L535.014 112.002L564.891 118.299L565.414 117.819L567.398 118.406Z" fill="#1C8A8B"/>
<path d="M545.13 101.902H541.616L541.115 107.926H545.13C545.933 109.13 547.807 110.101 548.644 110.435C549.849 111.239 551.823 111.105 552.66 110.937C554.266 108.528 555.337 108.93 555.671 109.432C555.671 113.447 557.01 114.117 557.679 113.949V107.424C558.081 106.621 557.512 106.085 557.177 105.918L550.15 101.902C548.142 101.099 545.967 101.568 545.13 101.902Z" fill="#E5B690"/>
<path d="M542.118 100.899C533.284 94.8753 529.067 83.6648 527.059 78.3105L528.063 95.8792L542.118 100.899Z" fill="#BDD7D3"/>
<path d="M528.063 95.8797L525.553 52.7111L510.997 45.1816L485.898 76.3032C482.284 79.1142 483.389 84.8366 484.393 87.3464C484.393 88.9526 492.089 94.3738 495.938 96.8836L494.432 108.429H531.075L541.114 110.939L542.118 100.899L528.063 95.8797Z" fill="#C7E5E5"/>
<path d="M525.554 41.1642C525.554 42.7705 524.215 48.8609 523.546 51.7054L513.005 46.1838C513.005 44.9791 515.849 35.9773 517.021 31.627C517.422 34.4379 522.877 39.1564 525.554 41.1642Z" fill="#E5A281"/>
<path d="M522.541 20.585C518.928 20.9868 518.351 25.6053 518.518 27.6131C515.707 26.0069 514.51 27.111 514.008 28.1149C513.606 30.9259 515.674 31.4613 517.012 31.6286C518.217 38.0537 525.211 41.3332 528.557 42.1698C532.171 42.9729 533.744 41.5005 534.079 40.6639C536.087 36.2467 534.581 25.7724 533.577 21.0874C530.364 22.2922 524.884 21.0869 522.541 20.585Z" fill="#E5B690"/>
<path d="M539.107 17.0704C538.605 18.5763 535.593 20.5841 533.585 21.0861C531.785 22.2188 525.808 21.558 523.044 21.0861C519.028 20.283 518.359 25.1018 518.526 27.6116C514.912 26.0053 514.176 27.7789 514.009 28.6155C514.009 31.4265 516.016 31.1253 517.02 31.6273C517.422 34.0367 516.518 33.9698 516.016 33.6351C512.001 30.4226 509.658 22.592 508.989 19.0783C507.784 14.2594 511.164 13.0547 513.004 13.0547C516.217 13.8579 520.032 13.3894 521.538 13.0547C527.16 10.6453 534.254 10.043 537.098 10.043C540.713 10.8461 539.943 15.0626 539.107 17.0704Z" fill="#222B55"/>
<path d="M496.44 95.377C504.304 99.2253 522.141 107.524 530.574 107.926" stroke="#C0D5D3" stroke-opacity="0.8" stroke-width="0.313447"/>
<path d="M509.993 70.7793C506.813 73.9584 502.464 75.2969 502.464 79.8146C502.966 84.3322 506.378 85.2358 509.993 86.8421L528.568 95.8773" stroke="#C0D5D3" stroke-opacity="0.8" stroke-width="0.313447"/>
<circle cx="252.312" cy="470.175" r="99.5378" fill="#E5D247"/>
<path d="M255.821 469.458V370.725C329.906 374.634 353.271 441.069 353.271 469.458H255.821Z" fill="#E5A50D"/>
<path d="M255.825 569.659L255.825 469.332H352.709C347.558 549.987 286.142 569.806 255.825 569.659Z" fill="#18898D"/>
<path d="M255.821 569.648V469.332L198.63 553.967C222.719 569.33 246.837 570.781 255.821 569.648Z" fill="#62C1C5"/>
<path d="M185.273 345.484C190.697 353.254 181.262 355.929 175.866 356.295H163.588L163.538 359.485L161.492 358.47C157.827 358.567 159.577 361.691 160.901 363.259C160.265 363.797 158.315 363.483 157.419 363.259C155.953 362.331 154.894 358.922 154.548 357.334C152.837 354.744 153.835 351.205 154.548 349.76C156.698 347.805 160.697 348.171 162.428 348.599C165.457 349.87 167.884 349.414 168.719 349.027C170.821 346.29 174.034 345.036 175.377 344.751C179.922 343.089 183.868 344.547 185.273 345.484Z" fill="#202C52"/>
<path d="M169.095 387.069C169.305 386.227 169.124 378.719 168.58 375.561C166.538 375.308 162.039 372.59 160.039 371.301L158.158 382.409L169.095 387.069Z" fill="#E59E87"/>
<path d="M176.728 373.609C177.797 368.335 176.782 359.902 176.142 356.346H163.572V359.443L161.813 358.526C159.989 358.09 159.284 359.19 159.284 359.95C159.145 361.12 160.26 362.676 160.809 363.289C160.1 363.656 158.908 363.531 158.223 363.424C157.588 365.561 158.226 368.421 158.616 369.603C160.552 373.509 167.018 375.404 170.009 375.863C174.512 376.379 176.366 375.001 176.728 373.609Z" fill="#E5B690"/>
<path d="M156.658 380.859L170.085 387.006L172.922 410.235C169.655 414.438 163.432 424.803 160.381 432.107C165.43 435.22 180.161 441.741 199.942 442.842V448.65C188.988 449.241 169.775 449.689 155.334 447.566C154.667 450.503 153.655 456.379 153.584 457.296H136.583C136.236 452.632 135.129 442.337 135.963 438.95C134.186 436.059 133.359 431.918 136.157 426.897C140.303 415.947 148.989 393.549 150.57 391.559L156.658 380.859Z" fill="#18898D"/>
<path d="M210.62 434.371L200.201 443.016V448.377C201.952 448.377 207.726 446.338 210.394 445.319C213.535 439.279 211.853 435.504 210.62 434.371Z" fill="#E5B593"/>
<path d="M164.448 405.666L157.743 423.726C156.789 426.11 156.063 430.554 159.64 431.984L170.438 437.226" stroke="#758EA8" stroke-width="0.313447"/>
<path d="M177.531 449.054C164.751 448.1 144.661 447.807 137.079 440.368C135.589 438.788 132.816 434.776 135.391 428.911L142.901 409.957" stroke="#758EA8" stroke-width="0.313447"/>
<path d="M133.97 593.372C123.865 591.334 120.228 585.496 119.673 582.832C117.103 583.375 114.37 581.452 113.324 580.422C109.97 582.078 108.53 585.251 108.229 586.631L112.263 590.771L114.173 589.338L120.33 596.078H135.137C135.349 594.635 134.447 593.673 133.97 593.372Z" fill="#1F2C55"/>
<path d="M176.372 586.405L176.526 580.277H169.739L169.48 586.675C171.062 588.45 174.806 587.206 176.372 586.405Z" fill="#E5B694"/>
<path d="M193.272 593.119C186.63 592.714 179.238 588.474 176.372 586.405C174.847 587.367 170.907 587.216 169.32 586.201C168.36 586.7 167.566 588.452 167.535 589.476V595.887H173.301V594.18L181.649 596.117H194.564C195.154 594.383 193.949 593.396 193.272 593.119Z" fill="#1F2C55"/>
<path d="M297.7 425.522C297.897 424.868 297.524 420.225 297.36 418.371C296.346 418.993 291.879 419.756 289.726 419.674L290.06 420.871H286.231C285.544 421.951 285.445 426.394 285.472 428.344C287.337 426.413 294.401 425.658 297.7 425.522Z" fill="#E5A27D"/>
<path d="M301.643 414.632C301.321 408.008 295.566 398.991 292.729 395.311C290.338 396.406 290.065 397.4 288.532 397.668C286.903 398.802 289.432 401.713 290.084 403.074C292.2 406.294 291.542 408.802 290.832 409.76L288.958 408.077C286.612 406.513 285.158 407.425 284.736 408.077C283.816 410.745 285.738 412.36 286.735 412.666L289.729 420.104C290.557 420.104 296.506 418.945 298.94 418.37C301.608 417.496 301.854 415.514 301.643 414.632Z" fill="#E5B495"/>
<path d="M310.61 410.464C310.944 412.867 309.568 420.958 308.845 424.519L319.05 423.442C319.684 419.737 319.302 411.521 319.038 408.003L316.868 392.064L310.139 394.543L310.61 410.464Z" fill="#E5B690"/>
<path d="M295.22 388.159C298.058 392.845 291.878 396.828 288.433 398.234C288.092 400.724 290.309 402.544 291.076 404.216C291.764 406.445 291.602 409.134 290.765 409.938C288.455 407.166 286.142 407.231 285.194 408.247C283.604 410.278 285.925 412.275 287.053 412.908L290.105 420.91C275.057 422.23 271.625 409.745 271.79 403.338C271.724 395.418 278.638 391.128 282.103 389.973C286.854 390.237 289.857 387.774 290.765 386.509C292.63 385.915 294.512 387.361 295.22 388.159Z" fill="#103955"/>
<path d="M328.26 438.018L317.9 423.535L325.23 421.738C330.044 420.934 330.239 417.312 330.589 414.877C330.745 411.878 330.319 403.43 329.791 399.269C329.187 394.509 328.254 390.467 327.438 389.091L324.366 382.801C323.136 380.996 324.238 379.425 324.942 378.864H331.327C331.673 378.826 333.167 379.745 333.872 380.209C336.291 381.668 335.744 384.754 335.168 386.114C334.63 387.074 334.733 390.187 334.852 391.623L337.009 403.624C337.82 406.194 338.775 420.251 339.151 426.959C339.376 430.34 337.441 432.276 336.445 432.82L328.26 438.018Z" fill="#E5B690"/>
<path d="M329.14 438.1L318.146 423.357C317.871 423.357 300.021 425.326 291.129 426.31C280.922 427.684 276.312 437.893 275.283 442.825V490.349H311.473L308.301 446.396C316.297 445.276 325.525 440.399 329.14 438.1Z" fill="#CCE5E5"/>
<path d="M311.17 614.798L311.361 608.738H304.685L305.228 614.418C306.162 615.495 309.557 615.246 311.17 614.798Z" fill="#E5B791"/>
<path d="M311.155 490.348H275.353C274.994 499.607 277.85 515.515 279.323 522.311C282.209 530.623 279.724 541.804 278.121 546.355L257.597 608.977H268.761L296.154 552.967C297.872 551.181 301.106 538.983 302.509 533.107C306.15 535.629 306.545 545.91 306.287 550.735L302.595 608.977H313.859L321.729 573.718C323.576 569.436 324.528 544.86 324.773 533.107C324.017 517.156 315.379 497.955 311.155 490.348Z" fill="#0A3C5F"/>
<path d="M302.211 533.107C292.725 527.65 280.481 502.371 275.544 490.414C275.544 495.809 277.734 511.798 278.828 519.119C282.052 532.313 280.172 541.781 278.828 544.866L257.933 609.011H268.502L296.142 553.075C297.515 551.522 300.76 539.116 302.211 533.107Z" fill="#08395B"/>
<path d="M265.301 614.635L267.493 609.004L260.236 609.011L259.358 614.282C260.293 615.283 263.687 615.052 265.301 614.635Z" fill="#E5B791"/>
<path d="M279.885 614.288H265.412C263.467 615.427 260.485 614.763 259.238 614.288C257.248 615.494 257.477 618.069 257.841 619.205H285.361C285.786 615.204 281.888 614.26 279.885 614.288Z" fill="#12395A"/>
<path d="M325.754 614.471H311.281C309.337 615.611 306.355 614.946 305.107 614.471C303.117 615.678 303.346 618.252 303.71 619.389H331.23C331.655 615.388 327.757 614.443 325.754 614.471Z" fill="#12395A"/>
<rect x="312.673" y="614.328" width="1.99322" height="2.54002" fill="#E9E9E9"/>
<rect x="266.804" y="614.146" width="1.99322" height="2.54002" fill="#E9E9E9"/>
<rect x="316.499" y="614.328" width="1.99322" height="2.54002" fill="#E9E9E9"/>
<rect x="270.63" y="614.146" width="1.99322" height="2.54002" fill="#E9E9E9"/>
<path d="M339.277 366.938L300.413 392.726L302.841 397.21L346.162 381.541L339.277 366.938Z" fill="#0A3C61"/>
<path d="M297.564 395.705L300.852 393.498L302.475 396.518L298.936 398.239C297.403 398.577 296.608 396.541 297.564 395.705Z" fill="#242B55"/>
<ellipse cx="342.725" cy="374.238" rx="3.09729" ry="8.06987" transform="rotate(-25.5458 342.725 374.238)" fill="#F5F5F5"/>
<path d="M314.736 386.732C312.589 387.901 308.92 387.743 308.73 386.998C307.881 384.87 312.911 382.445 314.391 381.896C316.644 381.067 317.278 382.117 317.314 382.746C317.016 384.83 315.471 386.272 314.736 386.732Z" fill="#E5B690"/>
<path d="M495.847 551.406H482.458C481.113 557.735 487.815 596.37 491.335 614.065L495.847 610.703V551.406Z" fill="#E5B690"/>
<path d="M467.17 415.525L450.597 395.986L440.901 406.437C440.988 408.513 455.212 429.141 462.313 439.195L466.612 475.635L496.68 475.94L495.411 462.311C494.404 457.528 496.628 446.808 497.866 442.046L511.639 451.03L516.595 439.195L498.231 419.768L467.17 415.525Z" fill="#B0D9C7"/>
<path d="M488.239 375.259C483.07 374.646 473.673 378.914 469.62 381.125C468.736 384.933 470.329 389.967 471.235 392.007C472.851 392.942 473.191 400.679 472.681 401.104C472.273 401.444 471.207 405.156 470.725 406.97C467.869 412.071 471.916 417.824 474.296 420.062C481.845 423.123 483.393 428.422 483.223 430.689L483.648 437.321C484.6 442.966 494.813 443.47 499.801 443.017C504.698 440.976 504.562 433.098 503.882 429.414C501.025 424.653 501.898 418.645 502.691 416.237C507.588 410.728 504.732 404.816 502.691 402.549C497.59 397.312 497.732 388.805 498.441 385.206C497.624 377.996 491.299 375.57 488.239 375.259Z" fill="#222B54"/>
<path d="M473.015 401.199C474.176 396.082 469.877 387.225 469.705 386.752C466.471 391.499 465.749 401.6 465.792 406.058C465.861 408.603 468.541 409.5 469.816 409.629C470.939 407.364 472.026 402.861 473.015 401.199Z" fill="#E5BB90"/>
<path d="M422.08 346.208L416.392 335.707C414.413 334.662 416.143 340.342 417.255 343.312C414.12 345.187 414.41 349.001 414.947 350.674L422.785 360.358L441.292 406.044L450.327 396.281L449.812 395.533L426.723 356.711C427.283 353.755 425.504 348.477 424.544 346.208C421.402 337.214 421.592 342.46 422.08 346.208Z" fill="#E5BB90"/>
<path d="M516.53 439.38L516.52 439.371L511.652 450.932C514.529 453.449 512.548 457.032 511.088 458.407L496.86 475.766C499.024 479.326 502.329 486.441 503.346 490.194C506.555 486.901 504.883 481.314 503.346 479.039C502.389 477.8 503.145 477.051 503.642 476.832L522.6 461.997C530.806 457.416 528.117 450.984 525.746 448.341C525.143 446.832 519.268 441.749 516.53 439.38Z" fill="#E5B690"/>
<path d="M496.953 475.668H466.616C462.172 482.947 462.026 500.062 462.509 507.71L465.764 534.648C465.764 534.648 465.771 545.829 466.466 551.42H496.372C494.85 532.291 500.102 515.774 502.918 509.906C508.211 497.096 501.147 481.743 496.953 475.668Z" fill="#0A3C5F"/>
<path d="M480.707 551.406H467.319C465.973 557.735 472.675 596.096 476.195 613.791L480.707 611.363V551.406Z" fill="#E5B690"/>
<path d="M489.618 619.42H475.492C477.187 617.365 482.277 616.852 484.61 616.852C487.332 616.852 493.578 611.887 496.36 609.404C499.339 610.843 498.543 613.985 497.773 615.376L497.13 619.42H495.333V617.43C495.589 614.913 491.63 617.708 489.618 619.42Z" fill="#1F2758"/>
<path d="M474.309 619.426H460.183C461.878 617.371 466.968 616.858 469.301 616.858C472.024 616.858 478.269 611.893 481.051 609.41C484.031 610.848 483.235 613.99 482.464 615.382L481.822 619.426H480.024V617.436C480.281 614.919 476.321 617.714 474.309 619.426Z" fill="#1C2559"/>
<path d="M570.574 497.545H641.345" stroke="#222B54" stroke-width="6.26894"/>
<path d="M612.094 587.502L598.161 497.335" stroke="#222B54" stroke-width="3.13447"/>
<path d="M626.337 588.972L639.155 498.64" stroke="#222B54" stroke-width="3.13447"/>
<path d="M683.241 587.502L669.308 497.335" stroke="#222B54" stroke-width="3.13447"/>
<path d="M572.921 366.478H662.403" stroke="#222B54" stroke-width="6.26894"/>
<path d="M659.081 438.182C658.925 459.585 646.309 484.769 640.708 494.867L638.868 501.095L668.85 498.183L677.447 493.658L659.081 438.182Z" fill="#222B54"/>
<circle cx="571.944" cy="366.478" r="4.29837" fill="#222B54"/>
<rect x="576.038" y="431.541" width="11.1365" height="37.2912" fill="#62C1C5"/>
<rect x="592.485" y="413.762" width="12.3654" height="55.0704" fill="#E5A60F"/>
<rect x="611.332" y="423.951" width="12.0888" height="44.8831" fill="#18898D"/>
<rect x="628.019" y="396.783" width="13.3267" height="72.0495" fill="#E5D146"/>
<path d="M607.134 503.513C581.727 506.788 563.09 540.795 563.662 552.343L563.331 561.738C582.263 548.44 615.87 540.906 623.195 519.961C625.29 506.955 612.279 502.484 607.134 503.513Z" fill="#222B54"/>
<path d="M566.551 480.108C599.597 497.285 575.004 544.689 568.286 561.555L554.028 561.555C540.762 530.3 518.541 506.441 531.075 488.349C539.054 473.866 559.091 475.339 566.551 480.108Z" fill="#006768"/>
<path d="M527.705 521.674C552.676 525.927 557.775 550.086 557.204 561.634H542.969C521.154 554.637 513.528 539.396 512.442 532.65C512.304 521.399 522.56 520.645 527.705 521.674Z" fill="#158B8D"/>
<path d="M561.438 562.467C566.357 542.807 569.634 497.914 542.971 479.193" stroke="#F2F2F2" stroke-width="0.940341"/>
<path d="M574.072 545.748C581.804 534.094 602.39 510.707 619.2 508.959" stroke="#00666B" stroke-width="0.940341"/>
<path d="M553.474 561.91C547.366 551.488 530.948 529.803 514.138 526.441" stroke="#006369" stroke-width="0.940341"/>
<rect x="540.302" y="566.562" width="37.5973" height="30.055" fill="#EBBF25"/>
<rect x="534.843" y="561.574" width="47.4461" height="4.9876" rx="2.4938" fill="#FFE072"/>
<path d="M651.992 404.599L661.852 388.553C663.533 389.557 667.345 388.971 669.041 388.553L669.851 388.163L671.891 387.299H673.851L677.997 416.934C676.489 428.883 678.833 432.705 679.881 434.034C680.605 434.577 683.851 439.738 685.384 442.251C689.877 449.036 688.979 460.801 687.422 466.27C684.319 478.557 689.609 507.031 692.642 519.731H660.049L658.875 457.253C659.019 452.413 657.871 443.168 657.278 439.15L654.258 426.689L647.838 429.961L643.811 416.934L650.482 409.445C650.029 408.237 651.3 405.711 651.992 404.599Z" fill="#18898D"/>
<path d="M647.676 429.368L643.971 417.406C641.581 418.763 618.427 416.101 607.475 414.503L604.026 410.505C600.428 405.308 601.594 410.139 602.627 413.204L595.581 408.306C592.662 405.787 592.332 408.023 592.532 409.456L594.527 413.928C596.945 418.662 603.678 418.829 606.742 418.321L637.499 428.252C640.485 429.236 645.468 429.577 647.676 429.368Z" fill="#E5B592"/>
<path d="M654.398 374.928C653.768 373.709 654.136 365.243 654.398 361.162C658.322 363.37 664.034 361.535 666.325 360.615C670.088 357.966 674.62 360.816 675.167 362.495C678.186 363.876 674.055 367.655 672.641 368.929C671.918 369.41 670.56 374.191 670.266 376.768C664.592 379.5 659.915 379.587 658.287 379.29C656.227 379.037 654.836 376.277 654.398 374.928Z" fill="#E5B592"/>
<path d="M662.403 388.801L662.404 379.229L670.446 376.752C670.372 377.119 669.797 385.05 669.532 388.393C668.309 390.032 663.288 389.107 662.403 388.801Z" fill="#E5A283"/>
<path d="M653.199 359.862C656.518 363.891 663.945 361.976 667.244 360.514C671.617 358.767 671.644 361.656 671.436 363.112C672.284 362.338 673.633 362.624 674.109 363.347C675.609 366.443 673.446 367.746 672.086 368.335C670.232 373.549 669.576 384.605 669.479 389.481C667.973 393.188 672.714 405.702 675.272 411.495C676.895 417.347 679.859 418.278 681.138 418.013C686.005 416.275 685.676 410.24 684.904 407.44C681.312 404.254 684.421 399.643 686.425 397.736C690.48 391.537 687.776 386.029 685.918 384.049C681.515 380.689 685.145 375.649 687.511 373.549C691.103 368.161 686.014 363.724 683.021 362.179C678.85 360.789 679.207 355.565 679.907 353.127C680.602 348.261 677.783 346.561 676.286 346.32C671.767 344.871 666.582 347.647 664.555 349.216C662.817 351.302 660.355 349.844 659.341 348.854C655.691 347.232 652.558 349.53 651.447 350.882C647.913 354.532 651.143 358.389 653.199 359.862Z" fill="#222B52"/>
<path d="M665.928 402.699C664.612 411.857 662.037 430.173 662.269 430.173C662.501 430.173 668.755 434.704 671.853 436.969L678.533 415.246" stroke="#272727" stroke-opacity="0.5" stroke-width="0.626894"/>
<path d="M655.922 431.541L651.275 413.302C650.675 410.747 649.671 407.778 653.25 402.615L661.904 388.559" stroke="#6ABDC1" stroke-width="0.626894"/>
<path d="M671.631 437.095L662.241 430.57C661.933 432.718 658.888 437.312 657.404 439.34L642.237 458.158L635.817 461.053C633.25 464.225 634.748 464.262 635.817 463.885C637.479 462.274 639.363 462.374 640.097 462.626C640.5 464.992 636.824 469.066 634.936 470.807C633.073 473.123 634.748 473.87 635.817 473.954C640.449 472.947 644.251 468.374 645.572 466.213V461.053L646.496 460.252L667.531 443.424C669.68 442.063 671.16 438.638 671.631 437.095Z" fill="#E5B78E"/>
<path d="M693.27 540.446C694.656 534.044 689.833 524.029 687.248 519.822H670.459L678.137 533.896L695.147 574.419C698.934 581.119 693.222 587.199 689.893 589.401C695.844 589.609 700.808 583.313 702.221 579.934L693.27 540.446Z" fill="#DFAA80"/>
<path d="M675.44 542.364C677.957 536.316 679.665 524.2 677.881 519.596L663.743 519.595L664.286 539.482L664.901 576.909C665.219 585.227 660.706 589.133 657.034 590.699C662.85 591.976 668.482 586.875 670.48 583.807L675.44 542.364Z" fill="#E5B690"/>
<path d="M650.669 594.725C652.164 590.831 655.642 590.401 657.194 590.673C663.361 591.768 668.761 586.078 670.691 583.096C672.669 585.2 671.795 588.358 671.111 589.673V594.725H668.586V590.094L663.377 594.909L650.669 594.725Z" fill="#006D74"/>
<path d="M684.584 594.84C683.942 592.179 687.577 590.07 689.474 589.349C694.893 589.349 700.23 582.775 702.22 579.488C705.139 580.418 704.933 584.285 704.465 586.102V591.313H701.579V586.784L694.965 594.84H684.584Z" fill="#006D74"/>
<path d="M658.445 243.37C664.329 247.934 665.651 257.146 664.329 261.895L663.349 265.418H689.294C689.294 265.418 688.496 261.895 688.136 260.753C684.674 249.79 695.656 243.37 699.718 238.768C714.378 222.16 708.347 202.861 704.72 199.684C692.603 179.871 654.296 182.381 645.395 203.832C639.077 219.058 651.789 236.587 658.445 243.37Z" fill="#E5A60F"/>
<path d="M674.435 265.174V220.054C674.114 216.699 665.928 215.171 663.276 221.51C662.737 223.963 664.02 228.82 673.464 228.626C677.534 227.979 685.755 226.443 686.079 225.472C687.345 224.206 689.297 221.025 686.968 218.438C684.92 217.305 680.726 216.481 680.338 222.238L679.772 265.174" stroke="#E5D86C" stroke-width="1.56724"/>
<path d="M663.172 265.174H689.428V274.521C689.428 277.983 686.622 280.79 683.16 280.79H669.441C665.978 280.79 663.172 277.983 663.172 274.521V265.174Z" fill="#61C1C5"/>
<path d="M681.551 284.789H672.045L670.069 280.836H683.245L681.551 284.789Z" fill="#91D0C7"/>
<path d="M675.857 284.93C674.979 292.117 670.311 307.672 658.667 312.394C653.883 316.017 633.959 322.482 592.53 319.358" stroke="#BEE5E5" stroke-width="1.56724"/>
<rect x="676.248" y="157.355" width="2.10769" height="19.6226" rx="1.05384" fill="#E5DF71"/>
<rect x="723.928" y="167.184" width="2.10769" height="19.8347" rx="1.05384" transform="rotate(45 723.928 167.184)" fill="#E5DF71"/>
<rect width="2.10769" height="19.8347" rx="1.05384" transform="matrix(-0.707107 0.707107 0.707107 0.707107 638.709 166.434)" fill="#E5DF71"/>
</svg>
