<svg width="87" height="85" viewBox="0 0 87 85" fill="none" xmlns="http://www.w3.org/2000/svg">
<path fill-rule="evenodd" clip-rule="evenodd" d="M44.0145 0.701613C44.0145 0.314123 43.7004 0 43.3129 0C42.9254 0 42.6113 0.314123 42.6113 0.701613V3.77064C42.6113 4.15813 42.9254 4.47225 43.3129 4.47225C43.7004 4.47225 44.0145 4.15813 44.0145 3.77064V0.701613ZM44.0145 6.68228C44.0145 6.29479 43.7004 5.98067 43.3129 5.98067C42.9254 5.98067 42.6113 6.29479 42.6113 6.68228V10.3022C42.6113 10.6897 42.9254 11.0038 43.3129 11.0038C43.7004 11.0038 44.0145 10.6897 44.0145 10.3022V6.68228ZM14.6212 18.1512C14.3484 17.8759 13.9042 17.8738 13.6289 18.1466C13.3537 18.4193 13.3516 18.8635 13.6243 19.1388L16.4312 21.9717C16.7039 22.247 17.1481 22.2491 17.4234 21.9763C17.6987 21.7036 17.7007 21.2594 17.428 20.9841L14.6212 18.1512ZM9.38659 13.9663C9.66649 13.6983 10.1106 13.708 10.3786 13.9879L12.8646 16.5848C13.1326 16.8647 13.1229 17.3088 12.843 17.5768C12.5631 17.8447 12.119 17.8351 11.851 17.5552L9.36496 14.9583C9.097 14.6784 9.10668 14.2342 9.38659 13.9663ZM73.1559 19.0657C73.4325 18.7943 73.4367 18.3501 73.1653 18.0735C72.8939 17.7969 72.4497 17.7927 72.1731 18.0641L69.8474 20.3462C69.5708 20.6176 69.5666 21.0618 69.838 21.3384C70.1094 21.615 70.5536 21.6192 70.8302 21.3478L73.1559 19.0657ZM77.2448 13.5786C77.522 13.8493 77.5273 14.2935 77.2565 14.5707L75.412 16.4594C75.1413 16.7366 74.6971 16.7418 74.4199 16.4711C74.1427 16.2004 74.1374 15.7562 74.4082 15.4789L76.2526 13.5903C76.5234 13.3131 76.9676 13.3078 77.2448 13.5786ZM59.357 10.2629C59.5084 9.90628 59.3421 9.49437 58.9854 9.34292C58.6287 9.19147 58.2168 9.35783 58.0654 9.7145L54.8576 17.269C54.7061 17.6257 54.8725 18.0376 55.2291 18.1891C55.5858 18.3405 55.9977 18.1741 56.1492 17.8175L59.357 10.2629ZM26.9762 10.2968C27.3271 10.1323 27.7448 10.2835 27.9092 10.6344L31.117 17.4807C31.2814 17.8316 31.1303 18.2493 30.7794 18.4137C30.4285 18.5781 30.0108 18.4269 29.8464 18.0761L26.6385 11.2298C26.4741 10.8789 26.6253 10.4612 26.9762 10.2968ZM13.3697 34.9725C13.7615 32.714 12.1972 30.7485 10.2653 30.1318C9.27774 29.8166 8.16199 29.8372 7.1148 30.3495C6.06746 30.8618 5.15234 31.834 4.49858 33.3093L4.46786 33.3786L4.45266 33.4529L0.122115 54.6192L0.12208 54.6192L0.120732 54.6262C-0.0569463 55.5415 -0.04565 56.3249 0.202321 57.1414C0.442457 57.932 0.892892 58.7117 1.50913 59.6345L1.52644 59.6605L1.54598 59.6848L11.1694 71.6449L11.2142 71.7005L11.2692 71.746C11.3437 71.8076 11.6075 72.1349 11.7174 72.8949C11.809 73.5283 11.7868 74.4315 11.4702 75.6397C11.3574 75.6137 11.2469 75.5897 11.1431 75.5702C10.832 75.5115 10.4684 75.4675 10.1103 75.5362C9.71874 75.6113 9.36773 75.8145 9.10171 76.177C8.85571 76.5122 8.70941 76.9466 8.62014 77.4519L8.13991 79.9648L9.5182 80.2282L9.99937 77.7103L9.99945 77.7103L10.0013 77.7C10.0725 77.2948 10.1666 77.0977 10.233 77.0072C10.2802 76.9428 10.3152 76.9257 10.3747 76.9143C10.4677 76.8964 10.6204 76.8996 10.8831 76.9491C11.0562 76.9817 11.229 77.0237 11.4299 77.0726L11.4301 77.0726C11.5426 77.1 11.6638 77.1295 11.7988 77.1606L11.7988 77.1607L11.8097 77.163L25.7589 80.1521L25.876 80.1789L25.8764 80.179L25.8766 80.179C26.4271 80.3049 26.8307 80.3972 27.139 80.4893C27.4699 80.588 27.5883 80.6592 27.6266 80.6915C27.628 80.699 27.6297 80.7111 27.6306 80.7289C27.6311 80.7371 27.6314 80.7464 27.6315 80.757C27.6323 80.9038 27.5907 81.1423 27.4778 81.5697L27.4777 81.5697L27.4748 81.5813L26.9135 83.8632L28.2761 84.1984L28.836 81.9223C28.9469 81.502 29.0368 81.1013 29.0347 80.7486C29.0323 80.3481 28.9106 79.9635 28.577 79.659C28.2934 79.4001 27.9123 79.2557 27.5403 79.1446C27.3153 79.0775 27.0523 79.0116 26.7554 78.9417L29.0796 69.0842L29.0863 69.0557L29.0907 69.0267C29.2696 67.8268 29.1227 64.9745 27.0665 62.937L14.8164 48.5608L14.7684 48.5044L14.7096 48.4594C12.611 46.8479 10.2563 47.0723 8.72266 48.3035C7.19555 49.5294 6.52782 51.7327 7.73891 53.8493L7.76576 53.8963L7.79949 53.9385L14.4557 62.2792L15.5525 61.4039L8.93143 53.1073C8.12435 51.6514 8.58053 50.217 9.6011 49.3977C10.6135 48.585 12.2255 48.3566 13.7979 49.5291L26.0182 63.8703L26.0385 63.8941L26.0608 63.9161C27.6882 65.5128 27.8411 67.8287 27.7067 68.7923L25.3855 78.637L12.8397 75.9487C13.1843 74.6128 13.2277 73.5343 13.1062 72.6941C12.9728 71.7719 12.6311 71.0899 12.2245 70.7178L2.6589 58.8295C2.06667 57.9405 1.72017 57.3104 1.54499 56.7336C1.37621 56.1779 1.35524 55.6323 1.49759 54.897L5.81186 33.8102C6.35665 32.6133 7.05219 31.9422 7.7314 31.61C8.42344 31.2714 9.16221 31.2527 9.83866 31.4686C11.231 31.913 12.2313 33.2853 11.9892 34.7206L10.2277 43.048L11.6005 43.3384L13.3648 34.9977L13.3675 34.9851L13.3697 34.9725ZM76.6806 30.1879C74.7415 30.8025 73.1646 32.7648 73.5595 35.0254L73.5617 35.0382L73.5644 35.0508L75.3392 43.3826L76.7116 43.0903L74.9397 34.772C74.697 33.3426 75.6998 31.9708 77.1046 31.5255C77.787 31.3092 78.5325 31.328 79.2305 31.6671C79.915 31.9996 80.6145 32.6704 81.1622 33.865L85.5018 54.9289C85.6449 55.6627 85.6238 56.2068 85.4543 56.761C85.2782 57.3366 84.9299 57.9658 84.3341 58.8539L74.7119 70.7296C74.3032 71.1011 73.9589 71.7827 73.8246 72.7053C73.7023 73.5449 73.7459 74.6222 74.092 75.9559L61.4645 78.6429L59.1292 68.8074C58.9943 67.8463 59.1477 65.5344 60.7844 63.9396L60.8069 63.9177L60.8273 63.894L73.1199 49.5678C74.704 48.3946 76.3301 48.6229 77.3506 49.4365C78.3779 50.2555 78.8348 51.686 78.0245 53.1378L71.3643 61.4255L72.4581 62.3045L79.1537 53.9727L79.1876 53.9305L79.2147 53.8835C80.4345 51.7665 79.7607 49.5633 78.2253 48.3393C76.6848 47.1112 74.3205 46.887 72.2118 48.495L72.153 48.5399L72.1048 48.5961L59.7821 62.9571C57.7136 64.9925 57.5653 67.8431 57.7456 69.0434L57.7499 69.0726L57.7568 69.1013L60.0941 78.9456C59.7948 79.0156 59.5299 79.0815 59.3033 79.1487C58.9296 79.2594 58.5472 79.4034 58.2626 79.6614C57.9273 79.9654 57.8042 80.3503 57.8018 80.752C57.7997 81.1052 57.8903 81.506 58.0018 81.9258L58.5651 84.1994L59.9271 83.862L59.3624 81.5826L59.3595 81.5708L59.3594 81.5709C59.2458 81.1439 59.2041 80.9062 59.205 80.7605C59.2052 80.728 59.2077 80.7079 59.2096 80.697C59.2489 80.6641 59.369 80.5928 59.7021 80.494C60.0125 80.402 60.4189 80.3097 60.9728 80.1839L61.0909 80.1571L75.1227 77.1712L75.1335 77.1689L75.1334 77.1688C75.2674 77.1381 75.3881 77.109 75.5001 77.082L75.5023 77.0814L75.504 77.081C75.7064 77.0322 75.8806 76.9901 76.0549 76.9575C76.3195 76.9079 76.4744 76.9045 76.5696 76.9226C76.6318 76.9345 76.6678 76.9526 76.7153 77.0169C76.7819 77.107 76.8763 77.3034 76.9479 77.7076L76.9497 77.718L76.9498 77.718L77.4338 80.2332L78.8117 79.9681L78.3287 77.4578C78.2388 76.9525 78.0914 76.5181 77.8438 76.1829C77.5762 75.8208 77.2239 75.6188 76.8323 75.5442C76.4738 75.4759 76.1094 75.5196 75.7967 75.5782C75.6906 75.598 75.5775 75.6225 75.4622 75.6489C75.1434 74.4416 75.1211 73.5396 75.2132 72.9075C75.3235 72.1495 75.5883 71.8229 75.6637 71.761L75.7189 71.7158L75.7638 71.6603L85.4442 59.7129L85.4639 59.6886L85.4813 59.6627C86.1011 58.7409 86.5544 57.9618 86.7962 57.1714C87.0459 56.3548 87.0572 55.5713 86.8783 54.6563L86.877 54.6493L82.5208 33.5055L82.5054 33.4308L82.4743 33.3612C81.8163 31.8866 80.8957 30.916 79.8436 30.4049C78.7921 29.8941 77.6721 29.8736 76.6806 30.1879ZM64.0438 42.092C64.0438 53.2426 54.8235 62.3273 43.3933 62.3273C31.963 62.3273 22.7428 53.2426 22.7428 42.092C22.7428 30.9414 31.963 21.8568 43.3933 21.8568C54.8235 21.8568 64.0438 30.9414 64.0438 42.092ZM65.447 42.092C65.447 54.0426 55.5732 63.7305 43.3933 63.7305C31.2133 63.7305 21.3395 54.0426 21.3395 42.092C21.3395 30.1414 31.2133 20.4536 43.3933 20.4536C55.5732 20.4536 65.447 30.1414 65.447 42.092Z" fill="white"/>
</svg>
