<svg width="87" height="87" viewBox="0 0 87 87" fill="none" xmlns="http://www.w3.org/2000/svg">
<mask id="path-1-inside-1_313_2544" fill="white">
<path fill-rule="evenodd" clip-rule="evenodd" d="M62.2254 0.449608C61.799 0.875831 61.7767 1.00688 61.7767 3.08352V5.26892L60.4881 5.77446L59.1994 6.28019L57.7009 4.79646C56.8546 3.95882 55.9788 3.25862 55.6893 3.18807C55.215 3.07256 54.9573 3.28092 52.2623 5.95687C48.6559 9.53791 48.7104 9.31401 50.908 11.5217L52.4679 13.0888L52.0273 14.0842C51.7851 14.6316 51.5382 15.2234 51.4786 15.3994C51.3832 15.6808 51.0994 15.7192 49.1081 15.7192C47.1488 15.7192 46.8055 15.764 46.5436 16.0535C46.281 16.3438 46.2411 16.9306 46.2411 20.5089C46.2411 25.0205 46.2298 24.9722 47.3496 25.2012C47.8904 25.312 47.7126 25.4878 41.5455 30.9399L35.1835 36.5641L35.0921 33.2547C35.0091 30.249 34.9682 29.9213 34.6459 29.6861C34.3582 29.4761 33.2446 29.4271 28.7647 29.4271H23.2384L22.8597 29.9087C22.5088 30.3546 22.4809 30.6292 22.4809 33.6266V36.8627L21.7041 37.093C21.2768 37.2195 20.3159 37.6043 19.5688 37.9479L18.2102 38.5728L15.8976 36.2845C13.8429 34.2515 13.5152 33.9963 12.9594 33.9963C12.3886 33.9963 11.9945 34.3359 8.45152 37.8819C5.17937 41.1568 4.56928 41.8508 4.56928 42.2984C4.56928 42.7334 4.98636 43.251 6.87622 45.1609L9.18334 47.4925L8.43471 49.2376C8.02311 50.1976 7.63399 51.1911 7.57002 51.4453L7.45396 51.9079H4.10577H0.757587L0.378885 52.3895C0.01517 52.8519 0 53.0852 0 58.2464V63.6219L0.448703 64.0704C0.891558 64.5135 0.938164 64.5191 4.18126 64.5191H7.46529L7.68388 65.2045C7.80415 65.5816 8.19327 66.5751 8.54876 67.4128L9.19485 68.9356L6.88207 71.2535C4.96315 73.1767 4.56928 73.6636 4.56928 74.1124C4.56928 74.5732 5.14647 75.2306 8.45792 78.5421C11.7694 81.8535 12.4268 82.4307 12.8876 82.4307C13.3364 82.4307 13.8234 82.0368 15.7465 80.1179L18.0644 77.8051L19.5872 78.4512C20.4249 78.8067 21.4186 79.1959 21.7955 79.3161L22.4809 79.5347V82.8187C22.4809 86.0618 22.4865 86.1084 22.9296 86.5513L23.3781 87H28.7536C33.9148 87 34.1481 86.9848 34.6105 86.6211L35.0921 86.2424V82.9034V79.5643L35.8689 79.3331C36.2962 79.2061 37.2866 78.8098 38.0698 78.4527L39.4941 77.8035L41.8323 80.117C43.7545 82.0189 44.2657 82.4307 44.7049 82.4307C45.1567 82.4307 45.837 81.8323 49.1214 78.5452C52.6553 75.0084 53.0037 74.6039 53.0037 74.0373C53.0037 73.4855 52.7432 73.1518 50.7049 71.0918L48.406 68.7684L48.9463 67.6948C49.2435 67.1043 49.635 66.148 49.8163 65.5701L50.146 64.5191H53.378C56.3707 64.5191 56.6454 64.4912 57.0913 64.1403L57.5729 63.7616V58.2353C57.5729 53.7554 57.5239 52.6418 57.3139 52.3541C57.0787 52.0318 56.751 51.9909 53.7453 51.9079L50.4359 51.8165L56.0601 45.4545C61.5122 39.2874 61.688 39.1096 61.7988 39.6504C62.0278 40.7709 61.9764 40.7589 66.5227 40.7589C70.3141 40.7589 70.7021 40.7298 70.9783 40.4246C71.225 40.1521 71.2808 39.6789 71.2808 37.8601C71.2808 35.8992 71.3193 35.6168 71.6006 35.5214C71.7764 35.4618 72.3684 35.2149 72.9158 34.9727L73.9112 34.5321L75.4783 36.092C77.686 38.2896 77.4621 38.3441 81.0431 34.7377C84.4747 31.2818 84.4185 31.5368 82.2359 29.3318C81.4379 28.5256 80.7847 27.7854 80.7843 27.6869C80.7841 27.5886 81.002 26.994 81.2687 26.3657L81.7536 25.2233H83.9276C85.9924 25.2233 86.1245 25.2007 86.5504 24.7746C86.9982 24.327 86.9991 24.3182 86.9991 20.5042C86.9991 15.4988 87.1373 15.7192 83.9989 15.7192H81.7565L81.2707 14.481C81.0035 13.7999 80.7849 13.1679 80.7849 13.0764C80.7849 12.985 81.484 12.1956 82.3384 11.3225C83.1929 10.4492 83.892 9.63788 83.892 9.51945C83.892 8.99197 83.2073 8.15762 80.9346 5.91502C78.6168 3.628 77.9775 3.10802 77.4835 3.10802C77.3634 3.10802 76.5508 3.80712 75.6775 4.66157C74.8044 5.51603 74.015 6.21513 73.9236 6.21513C73.8321 6.21513 73.2001 5.99653 72.519 5.72932L71.2808 5.24351V3.00109C71.2808 -0.13727 71.5012 0.000904977 66.4958 0.000904977C62.6818 0.000904977 62.673 0.00181882 62.2254 0.449608ZM68.722 4.54551C68.722 6.80164 68.9667 7.36329 70.0493 7.59085C70.3748 7.65938 71.331 8.03571 72.1742 8.42739C73.0175 8.81907 73.9242 9.13947 74.189 9.13947C74.548 9.13947 75.0406 8.76734 76.1246 7.67693L77.5785 6.21439L79.1816 7.81017L80.7849 9.40595L79.3227 10.8758C78.2495 11.9547 77.8605 12.4716 77.8605 12.819C77.8605 13.0795 78.1809 13.9825 78.5726 14.8258C78.9643 15.669 79.3406 16.6252 79.4091 16.9507C79.6367 18.0333 80.1984 18.278 82.4545 18.278H84.4403V20.4713V22.6645H82.4177C81.3054 22.6645 80.2431 22.7459 80.0573 22.8455C79.8654 22.9482 79.5437 23.5601 79.3127 24.262C79.0889 24.9415 78.6708 25.9681 78.3833 26.5431C77.5811 28.1479 77.6429 28.3975 79.2313 29.9754C79.9853 30.7242 80.6021 31.4233 80.6021 31.5286C80.6021 31.634 79.9463 32.3722 79.1449 33.1689L77.6876 34.6176L76.2662 33.2362C75.4845 32.4764 74.6657 31.7983 74.4469 31.7294C74.1711 31.6426 73.5813 31.8267 72.5278 32.3284C71.6911 32.7268 70.6776 33.1417 70.2755 33.2503C68.8903 33.6248 68.722 33.9618 68.722 36.3603V38.2001H66.5287H64.3355L64.3373 37.1492L64.3391 36.0982L68.5619 31.3462C73.5976 25.679 74.2402 24.8463 74.7423 23.338C75.8606 19.9772 75.1184 16.7815 72.6453 14.3084C70.6391 12.3021 68.0293 11.4279 65.3087 11.8509C62.847 12.2336 62.1667 12.6894 56.2692 17.9096L50.9018 22.6605L49.8508 22.6625L48.7999 22.6645V20.4713V18.278H50.6397C53.0382 18.278 53.3752 18.1097 53.7497 16.7245C53.8583 16.3224 54.2732 15.3089 54.6716 14.4722C55.1733 13.4187 55.3574 12.8289 55.2706 12.5531C55.2017 12.3343 54.5236 11.5155 53.7638 10.7338L52.3824 9.31237L53.8311 7.85513C54.6278 7.05368 55.366 6.3979 55.4714 6.3979C55.5767 6.3979 56.2758 7.01475 57.0246 7.76868C58.6025 9.35715 58.8521 9.41892 60.4569 8.61674C61.0319 8.32924 62.0585 7.91106 62.738 7.68735C63.4399 7.45633 64.0518 7.13465 64.1545 6.94274C64.2541 6.75686 64.3355 5.69459 64.3355 4.58225V2.5597H66.5287H68.722V4.54551ZM69.1899 14.894C70.4378 15.5047 71.508 16.5879 72.1409 17.8818C72.5647 18.7479 72.6472 19.1537 72.6486 20.379C72.6501 21.6076 72.566 22.025 72.1235 22.9838C70.3687 26.7879 65.4747 27.773 62.3511 24.951C60.925 23.6626 60.1332 21.3519 60.4783 19.4852C60.9412 16.9804 62.6909 15.0867 65.1579 14.4197C66.155 14.1503 68.149 14.3848 69.1899 14.894ZM64.7038 16.9451C62.257 18.2307 61.8004 21.2784 63.761 23.239C65.7216 25.1996 68.7693 24.743 70.0549 22.2963C71.902 18.781 68.219 15.098 64.7038 16.9451ZM67.5422 19.4578C67.8251 19.7406 67.9909 20.1152 67.9909 20.4713C67.9909 21.124 67.292 21.9334 66.7285 21.9334C65.8104 21.9334 65.0666 21.1896 65.0666 20.2715C65.0666 19.708 65.876 19.0091 66.5287 19.0091C66.8848 19.0091 67.2594 19.1749 67.5422 19.4578ZM57.9218 21.5679C58.5058 25.4852 61.5519 28.5304 65.4211 29.065C66.169 29.1683 66.8062 29.2779 66.8369 29.3088C66.9617 29.4335 63.3834 33.2653 63.1422 33.2653C62.7439 33.2653 60.6685 32.4507 59.949 32.0118C59.5971 31.7972 59.1554 31.6214 58.9671 31.6211C58.7789 31.6207 57.9332 32.2955 57.0877 33.1209L55.5504 34.6212L53.9645 33.0355L52.3788 31.4496L53.8791 29.9123C54.7045 29.0668 55.3797 28.2709 55.3797 28.1435C55.3797 28.0161 55.0949 27.3199 54.7469 26.5965C54.3991 25.8731 54.0157 24.9119 53.8948 24.4608L53.6755 23.6405L54.4819 22.9027C55.7927 21.7035 57.644 20.1156 57.682 20.1578C57.7014 20.1794 57.8094 20.814 57.9218 21.5679ZM52.0224 26.8171L52.4506 27.871L50.8994 29.4294C48.7288 31.6103 48.6824 31.4061 52.1333 34.8623C55.5871 38.3216 55.3853 38.2756 57.5706 36.1006L59.129 34.5494L60.1884 34.98C60.7711 35.2167 61.2552 35.473 61.2644 35.5492C61.2848 35.7213 49.4913 49.1349 49.3034 49.1532C49.2285 49.1603 48.99 48.7893 48.7734 48.3284L48.3794 47.4902L50.6916 45.173C52.616 43.2442 53.0037 42.7644 53.0037 42.3115C53.0037 41.8467 52.4367 41.1999 49.1214 37.8819C45.7944 34.5522 45.1608 33.9963 44.6918 33.9963C44.2347 33.9963 43.7618 34.378 41.827 36.3084L39.5098 38.6206L38.6716 38.2266C38.2107 38.01 37.8397 37.7715 37.847 37.6965C37.8662 37.5019 51.4209 25.5902 51.5155 25.6846C51.5587 25.728 51.7868 26.2375 52.0224 26.8171ZM32.5333 35.0137C32.5333 36.6789 32.604 38.1798 32.6903 38.3492C32.8178 38.5994 31.7205 39.6493 26.8279 43.9574C23.5174 46.8726 20.3691 49.7371 19.832 50.3233C16.5397 53.9153 15.8905 59.3526 18.2177 63.8429C19.1447 65.6317 21.3683 67.8553 23.1571 68.7823C27.6125 71.0914 33.0953 70.4473 36.6456 67.198C37.2488 66.6459 40.1274 63.4848 43.0426 60.1734C47.3509 55.2795 48.4006 54.1821 48.6508 54.3097C48.8202 54.396 50.3211 54.4667 51.9863 54.4667H55.0141V58.2135V61.9603H51.844C49.0549 61.9603 48.6396 61.9987 48.3896 62.2802C48.2333 62.456 47.8458 63.3814 47.5284 64.3364C47.2111 65.2914 46.6271 66.6753 46.2307 67.4119C45.8343 68.1484 45.51 68.9223 45.51 69.1319C45.51 69.3739 46.3245 70.3366 47.7431 71.7715L49.9762 74.0304L47.3376 76.6736L44.6989 79.317L42.4837 77.1271C39.9386 74.611 39.8831 74.5911 38.1374 75.5664C37.518 75.9125 36.1476 76.485 35.0921 76.8385C33.928 77.2283 33.0472 77.6357 32.8531 77.8742C32.5766 78.2142 32.5333 78.6861 32.5333 81.3544V84.4412H28.7865H25.0397V81.2776C25.0397 79.0295 24.9735 78.0268 24.8112 77.8123C24.6856 77.6463 23.8836 77.2919 23.0292 77.0245C22.1747 76.7571 20.7575 76.1781 19.88 75.7378C19.0024 75.2973 18.0989 74.9371 17.8721 74.9371C17.589 74.9371 16.7581 75.6373 15.2173 77.1742L12.9747 79.4115L10.2816 76.7184L7.58848 74.0253L9.82578 71.7826C11.3627 70.2419 12.0629 69.411 12.0629 69.1279C12.0629 68.9011 11.7027 67.9976 11.2622 67.12C10.8219 66.2425 10.2429 64.8253 9.97547 63.9708C9.70808 63.1164 9.35368 62.3146 9.18773 62.1888C8.97315 62.0265 7.97047 61.9603 5.72238 61.9603H2.5588V58.2135V54.4667H5.64562C8.3139 54.4667 8.78581 54.4234 9.12577 54.1469C9.36428 53.9528 9.77168 53.072 10.1615 51.9079C10.515 50.8524 11.0874 49.482 11.4336 48.8626C12.4089 47.1169 12.389 47.0614 9.87293 44.5163L7.68297 42.3011L10.3264 39.6624L12.9696 37.0238L15.2285 39.2569C16.6634 40.6755 17.6261 41.49 17.8681 41.49C18.0777 41.49 18.8516 41.1657 19.5881 40.7693C20.3247 40.3729 21.7087 39.7889 22.6636 39.4716C23.6186 39.1542 24.5438 38.7667 24.7198 38.6104C25.0013 38.3604 25.0397 37.9451 25.0397 35.156V31.9859H28.7865H32.5333V35.0137ZM47.3811 39.6142C48.7646 40.995 49.8965 42.2094 49.8965 42.3128C49.8965 42.4163 48.9096 43.4853 47.7033 44.6885C46.497 45.8916 45.51 47.0106 45.51 47.1752C45.51 47.3397 45.9299 48.3532 46.4429 49.4274C47.276 51.1712 47.3472 51.4133 47.1087 51.6897C46.962 51.86 45.4844 53.5329 43.8256 55.4073L40.8097 58.815L40.7072 57.235C40.5938 55.4873 39.9032 53.3056 39.0187 51.9015C38.2962 50.7548 36.4857 48.9121 35.3233 48.1406C33.8202 47.1429 31.626 46.4135 29.765 46.2928L28.185 46.1903L31.5927 43.1744C33.4671 41.5156 35.14 40.038 35.3103 39.8913C35.5867 39.6528 35.8288 39.724 37.5726 40.5571C38.6468 41.0701 39.6603 41.49 39.8247 41.49C39.9894 41.49 41.1084 40.503 42.3115 39.2967C43.5147 38.0904 44.5816 37.1035 44.6823 37.1035C44.7831 37.1035 45.9975 38.2332 47.3811 39.6142ZM31.1254 49.073C38.0075 50.8656 40.5286 59.2718 35.7497 64.4917C32.7468 67.7721 27.5403 68.4345 23.8385 66.0074C21.0265 64.1638 19.5565 61.4614 19.5565 58.136C19.5565 55.3932 20.3691 53.424 22.278 51.5411C24.2174 49.628 26.0835 48.8357 28.7024 48.8129C29.4603 48.8063 30.5506 48.9233 31.1254 49.073ZM27.8441 52.8298C25.2985 53.3319 23.5974 55.2647 23.4384 57.8357C23.3273 59.6366 23.8102 60.8778 25.0952 62.093C26.3304 63.2611 27.5274 63.6857 29.2403 63.5631C32.8542 63.3044 35.0807 59.8369 33.9052 56.2979C33.1258 53.9513 30.3144 52.3427 27.8441 52.8298ZM30.5087 55.8901C32.0372 57.0294 32.0281 59.4045 30.4906 60.5503C29.8019 61.0637 28.371 61.17 27.5292 60.7705C25.6795 59.8928 25.418 57.09 27.0726 55.8779C28.0466 55.1644 29.542 55.1697 30.5087 55.8901Z"/>
</mask>
<path fill-rule="evenodd" clip-rule="evenodd" d="M62.2254 0.449608C61.799 0.875831 61.7767 1.00688 61.7767 3.08352V5.26892L60.4881 5.77446L59.1994 6.28019L57.7009 4.79646C56.8546 3.95882 55.9788 3.25862 55.6893 3.18807C55.215 3.07256 54.9573 3.28092 52.2623 5.95687C48.6559 9.53791 48.7104 9.31401 50.908 11.5217L52.4679 13.0888L52.0273 14.0842C51.7851 14.6316 51.5382 15.2234 51.4786 15.3994C51.3832 15.6808 51.0994 15.7192 49.1081 15.7192C47.1488 15.7192 46.8055 15.764 46.5436 16.0535C46.281 16.3438 46.2411 16.9306 46.2411 20.5089C46.2411 25.0205 46.2298 24.9722 47.3496 25.2012C47.8904 25.312 47.7126 25.4878 41.5455 30.9399L35.1835 36.5641L35.0921 33.2547C35.0091 30.249 34.9682 29.9213 34.6459 29.6861C34.3582 29.4761 33.2446 29.4271 28.7647 29.4271H23.2384L22.8597 29.9087C22.5088 30.3546 22.4809 30.6292 22.4809 33.6266V36.8627L21.7041 37.093C21.2768 37.2195 20.3159 37.6043 19.5688 37.9479L18.2102 38.5728L15.8976 36.2845C13.8429 34.2515 13.5152 33.9963 12.9594 33.9963C12.3886 33.9963 11.9945 34.3359 8.45152 37.8819C5.17937 41.1568 4.56928 41.8508 4.56928 42.2984C4.56928 42.7334 4.98636 43.251 6.87622 45.1609L9.18334 47.4925L8.43471 49.2376C8.02311 50.1976 7.63399 51.1911 7.57002 51.4453L7.45396 51.9079H4.10577H0.757587L0.378885 52.3895C0.01517 52.8519 0 53.0852 0 58.2464V63.6219L0.448703 64.0704C0.891558 64.5135 0.938164 64.5191 4.18126 64.5191H7.46529L7.68388 65.2045C7.80415 65.5816 8.19327 66.5751 8.54876 67.4128L9.19485 68.9356L6.88207 71.2535C4.96315 73.1767 4.56928 73.6636 4.56928 74.1124C4.56928 74.5732 5.14647 75.2306 8.45792 78.5421C11.7694 81.8535 12.4268 82.4307 12.8876 82.4307C13.3364 82.4307 13.8234 82.0368 15.7465 80.1179L18.0644 77.8051L19.5872 78.4512C20.4249 78.8067 21.4186 79.1959 21.7955 79.3161L22.4809 79.5347V82.8187C22.4809 86.0618 22.4865 86.1084 22.9296 86.5513L23.3781 87H28.7536C33.9148 87 34.1481 86.9848 34.6105 86.6211L35.0921 86.2424V82.9034V79.5643L35.8689 79.3331C36.2962 79.2061 37.2866 78.8098 38.0698 78.4527L39.4941 77.8035L41.8323 80.117C43.7545 82.0189 44.2657 82.4307 44.7049 82.4307C45.1567 82.4307 45.837 81.8323 49.1214 78.5452C52.6553 75.0084 53.0037 74.6039 53.0037 74.0373C53.0037 73.4855 52.7432 73.1518 50.7049 71.0918L48.406 68.7684L48.9463 67.6948C49.2435 67.1043 49.635 66.148 49.8163 65.5701L50.146 64.5191H53.378C56.3707 64.5191 56.6454 64.4912 57.0913 64.1403L57.5729 63.7616V58.2353C57.5729 53.7554 57.5239 52.6418 57.3139 52.3541C57.0787 52.0318 56.751 51.9909 53.7453 51.9079L50.4359 51.8165L56.0601 45.4545C61.5122 39.2874 61.688 39.1096 61.7988 39.6504C62.0278 40.7709 61.9764 40.7589 66.5227 40.7589C70.3141 40.7589 70.7021 40.7298 70.9783 40.4246C71.225 40.1521 71.2808 39.6789 71.2808 37.8601C71.2808 35.8992 71.3193 35.6168 71.6006 35.5214C71.7764 35.4618 72.3684 35.2149 72.9158 34.9727L73.9112 34.5321L75.4783 36.092C77.686 38.2896 77.4621 38.3441 81.0431 34.7377C84.4747 31.2818 84.4185 31.5368 82.2359 29.3318C81.4379 28.5256 80.7847 27.7854 80.7843 27.6869C80.7841 27.5886 81.002 26.994 81.2687 26.3657L81.7536 25.2233H83.9276C85.9924 25.2233 86.1245 25.2007 86.5504 24.7746C86.9982 24.327 86.9991 24.3182 86.9991 20.5042C86.9991 15.4988 87.1373 15.7192 83.9989 15.7192H81.7565L81.2707 14.481C81.0035 13.7999 80.7849 13.1679 80.7849 13.0764C80.7849 12.985 81.484 12.1956 82.3384 11.3225C83.1929 10.4492 83.892 9.63788 83.892 9.51945C83.892 8.99197 83.2073 8.15762 80.9346 5.91502C78.6168 3.628 77.9775 3.10802 77.4835 3.10802C77.3634 3.10802 76.5508 3.80712 75.6775 4.66157C74.8044 5.51603 74.015 6.21513 73.9236 6.21513C73.8321 6.21513 73.2001 5.99653 72.519 5.72932L71.2808 5.24351V3.00109C71.2808 -0.13727 71.5012 0.000904977 66.4958 0.000904977C62.6818 0.000904977 62.673 0.00181882 62.2254 0.449608ZM68.722 4.54551C68.722 6.80164 68.9667 7.36329 70.0493 7.59085C70.3748 7.65938 71.331 8.03571 72.1742 8.42739C73.0175 8.81907 73.9242 9.13947 74.189 9.13947C74.548 9.13947 75.0406 8.76734 76.1246 7.67693L77.5785 6.21439L79.1816 7.81017L80.7849 9.40595L79.3227 10.8758C78.2495 11.9547 77.8605 12.4716 77.8605 12.819C77.8605 13.0795 78.1809 13.9825 78.5726 14.8258C78.9643 15.669 79.3406 16.6252 79.4091 16.9507C79.6367 18.0333 80.1984 18.278 82.4545 18.278H84.4403V20.4713V22.6645H82.4177C81.3054 22.6645 80.2431 22.7459 80.0573 22.8455C79.8654 22.9482 79.5437 23.5601 79.3127 24.262C79.0889 24.9415 78.6708 25.9681 78.3833 26.5431C77.5811 28.1479 77.6429 28.3975 79.2313 29.9754C79.9853 30.7242 80.6021 31.4233 80.6021 31.5286C80.6021 31.634 79.9463 32.3722 79.1449 33.1689L77.6876 34.6176L76.2662 33.2362C75.4845 32.4764 74.6657 31.7983 74.4469 31.7294C74.1711 31.6426 73.5813 31.8267 72.5278 32.3284C71.6911 32.7268 70.6776 33.1417 70.2755 33.2503C68.8903 33.6248 68.722 33.9618 68.722 36.3603V38.2001H66.5287H64.3355L64.3373 37.1492L64.3391 36.0982L68.5619 31.3462C73.5976 25.679 74.2402 24.8463 74.7423 23.338C75.8606 19.9772 75.1184 16.7815 72.6453 14.3084C70.6391 12.3021 68.0293 11.4279 65.3087 11.8509C62.847 12.2336 62.1667 12.6894 56.2692 17.9096L50.9018 22.6605L49.8508 22.6625L48.7999 22.6645V20.4713V18.278H50.6397C53.0382 18.278 53.3752 18.1097 53.7497 16.7245C53.8583 16.3224 54.2732 15.3089 54.6716 14.4722C55.1733 13.4187 55.3574 12.8289 55.2706 12.5531C55.2017 12.3343 54.5236 11.5155 53.7638 10.7338L52.3824 9.31237L53.8311 7.85513C54.6278 7.05368 55.366 6.3979 55.4714 6.3979C55.5767 6.3979 56.2758 7.01475 57.0246 7.76868C58.6025 9.35715 58.8521 9.41892 60.4569 8.61674C61.0319 8.32924 62.0585 7.91106 62.738 7.68735C63.4399 7.45633 64.0518 7.13465 64.1545 6.94274C64.2541 6.75686 64.3355 5.69459 64.3355 4.58225V2.5597H66.5287H68.722V4.54551ZM69.1899 14.894C70.4378 15.5047 71.508 16.5879 72.1409 17.8818C72.5647 18.7479 72.6472 19.1537 72.6486 20.379C72.6501 21.6076 72.566 22.025 72.1235 22.9838C70.3687 26.7879 65.4747 27.773 62.3511 24.951C60.925 23.6626 60.1332 21.3519 60.4783 19.4852C60.9412 16.9804 62.6909 15.0867 65.1579 14.4197C66.155 14.1503 68.149 14.3848 69.1899 14.894ZM64.7038 16.9451C62.257 18.2307 61.8004 21.2784 63.761 23.239C65.7216 25.1996 68.7693 24.743 70.0549 22.2963C71.902 18.781 68.219 15.098 64.7038 16.9451ZM67.5422 19.4578C67.8251 19.7406 67.9909 20.1152 67.9909 20.4713C67.9909 21.124 67.292 21.9334 66.7285 21.9334C65.8104 21.9334 65.0666 21.1896 65.0666 20.2715C65.0666 19.708 65.876 19.0091 66.5287 19.0091C66.8848 19.0091 67.2594 19.1749 67.5422 19.4578ZM57.9218 21.5679C58.5058 25.4852 61.5519 28.5304 65.4211 29.065C66.169 29.1683 66.8062 29.2779 66.8369 29.3088C66.9617 29.4335 63.3834 33.2653 63.1422 33.2653C62.7439 33.2653 60.6685 32.4507 59.949 32.0118C59.5971 31.7972 59.1554 31.6214 58.9671 31.6211C58.7789 31.6207 57.9332 32.2955 57.0877 33.1209L55.5504 34.6212L53.9645 33.0355L52.3788 31.4496L53.8791 29.9123C54.7045 29.0668 55.3797 28.2709 55.3797 28.1435C55.3797 28.0161 55.0949 27.3199 54.7469 26.5965C54.3991 25.8731 54.0157 24.9119 53.8948 24.4608L53.6755 23.6405L54.4819 22.9027C55.7927 21.7035 57.644 20.1156 57.682 20.1578C57.7014 20.1794 57.8094 20.814 57.9218 21.5679ZM52.0224 26.8171L52.4506 27.871L50.8994 29.4294C48.7288 31.6103 48.6824 31.4061 52.1333 34.8623C55.5871 38.3216 55.3853 38.2756 57.5706 36.1006L59.129 34.5494L60.1884 34.98C60.7711 35.2167 61.2552 35.473 61.2644 35.5492C61.2848 35.7213 49.4913 49.1349 49.3034 49.1532C49.2285 49.1603 48.99 48.7893 48.7734 48.3284L48.3794 47.4902L50.6916 45.173C52.616 43.2442 53.0037 42.7644 53.0037 42.3115C53.0037 41.8467 52.4367 41.1999 49.1214 37.8819C45.7944 34.5522 45.1608 33.9963 44.6918 33.9963C44.2347 33.9963 43.7618 34.378 41.827 36.3084L39.5098 38.6206L38.6716 38.2266C38.2107 38.01 37.8397 37.7715 37.847 37.6965C37.8662 37.5019 51.4209 25.5902 51.5155 25.6846C51.5587 25.728 51.7868 26.2375 52.0224 26.8171ZM32.5333 35.0137C32.5333 36.6789 32.604 38.1798 32.6903 38.3492C32.8178 38.5994 31.7205 39.6493 26.8279 43.9574C23.5174 46.8726 20.3691 49.7371 19.832 50.3233C16.5397 53.9153 15.8905 59.3526 18.2177 63.8429C19.1447 65.6317 21.3683 67.8553 23.1571 68.7823C27.6125 71.0914 33.0953 70.4473 36.6456 67.198C37.2488 66.6459 40.1274 63.4848 43.0426 60.1734C47.3509 55.2795 48.4006 54.1821 48.6508 54.3097C48.8202 54.396 50.3211 54.4667 51.9863 54.4667H55.0141V58.2135V61.9603H51.844C49.0549 61.9603 48.6396 61.9987 48.3896 62.2802C48.2333 62.456 47.8458 63.3814 47.5284 64.3364C47.2111 65.2914 46.6271 66.6753 46.2307 67.4119C45.8343 68.1484 45.51 68.9223 45.51 69.1319C45.51 69.3739 46.3245 70.3366 47.7431 71.7715L49.9762 74.0304L47.3376 76.6736L44.6989 79.317L42.4837 77.1271C39.9386 74.611 39.8831 74.5911 38.1374 75.5664C37.518 75.9125 36.1476 76.485 35.0921 76.8385C33.928 77.2283 33.0472 77.6357 32.8531 77.8742C32.5766 78.2142 32.5333 78.6861 32.5333 81.3544V84.4412H28.7865H25.0397V81.2776C25.0397 79.0295 24.9735 78.0268 24.8112 77.8123C24.6856 77.6463 23.8836 77.2919 23.0292 77.0245C22.1747 76.7571 20.7575 76.1781 19.88 75.7378C19.0024 75.2973 18.0989 74.9371 17.8721 74.9371C17.589 74.9371 16.7581 75.6373 15.2173 77.1742L12.9747 79.4115L10.2816 76.7184L7.58848 74.0253L9.82578 71.7826C11.3627 70.2419 12.0629 69.411 12.0629 69.1279C12.0629 68.9011 11.7027 67.9976 11.2622 67.12C10.8219 66.2425 10.2429 64.8253 9.97547 63.9708C9.70808 63.1164 9.35368 62.3146 9.18773 62.1888C8.97315 62.0265 7.97047 61.9603 5.72238 61.9603H2.5588V58.2135V54.4667H5.64562C8.3139 54.4667 8.78581 54.4234 9.12577 54.1469C9.36428 53.9528 9.77168 53.072 10.1615 51.9079C10.515 50.8524 11.0874 49.482 11.4336 48.8626C12.4089 47.1169 12.389 47.0614 9.87293 44.5163L7.68297 42.3011L10.3264 39.6624L12.9696 37.0238L15.2285 39.2569C16.6634 40.6755 17.6261 41.49 17.8681 41.49C18.0777 41.49 18.8516 41.1657 19.5881 40.7693C20.3247 40.3729 21.7087 39.7889 22.6636 39.4716C23.6186 39.1542 24.5438 38.7667 24.7198 38.6104C25.0013 38.3604 25.0397 37.9451 25.0397 35.156V31.9859H28.7865H32.5333V35.0137ZM47.3811 39.6142C48.7646 40.995 49.8965 42.2094 49.8965 42.3128C49.8965 42.4163 48.9096 43.4853 47.7033 44.6885C46.497 45.8916 45.51 47.0106 45.51 47.1752C45.51 47.3397 45.9299 48.3532 46.4429 49.4274C47.276 51.1712 47.3472 51.4133 47.1087 51.6897C46.962 51.86 45.4844 53.5329 43.8256 55.4073L40.8097 58.815L40.7072 57.235C40.5938 55.4873 39.9032 53.3056 39.0187 51.9015C38.2962 50.7548 36.4857 48.9121 35.3233 48.1406C33.8202 47.1429 31.626 46.4135 29.765 46.2928L28.185 46.1903L31.5927 43.1744C33.4671 41.5156 35.14 40.038 35.3103 39.8913C35.5867 39.6528 35.8288 39.724 37.5726 40.5571C38.6468 41.0701 39.6603 41.49 39.8247 41.49C39.9894 41.49 41.1084 40.503 42.3115 39.2967C43.5147 38.0904 44.5816 37.1035 44.6823 37.1035C44.7831 37.1035 45.9975 38.2332 47.3811 39.6142ZM31.1254 49.073C38.0075 50.8656 40.5286 59.2718 35.7497 64.4917C32.7468 67.7721 27.5403 68.4345 23.8385 66.0074C21.0265 64.1638 19.5565 61.4614 19.5565 58.136C19.5565 55.3932 20.3691 53.424 22.278 51.5411C24.2174 49.628 26.0835 48.8357 28.7024 48.8129C29.4603 48.8063 30.5506 48.9233 31.1254 49.073ZM27.8441 52.8298C25.2985 53.3319 23.5974 55.2647 23.4384 57.8357C23.3273 59.6366 23.8102 60.8778 25.0952 62.093C26.3304 63.2611 27.5274 63.6857 29.2403 63.5631C32.8542 63.3044 35.0807 59.8369 33.9052 56.2979C33.1258 53.9513 30.3144 52.3427 27.8441 52.8298ZM30.5087 55.8901C32.0372 57.0294 32.0281 59.4045 30.4906 60.5503C29.8019 61.0637 28.371 61.17 27.5292 60.7705C25.6795 59.8928 25.418 57.09 27.0726 55.8779C28.0466 55.1644 29.542 55.1697 30.5087 55.8901Z" fill="white" stroke="white" stroke-width="1.40323" mask="url(#path-1-inside-1_313_2544)"/>
</svg>
