<svg width="88" height="88" viewBox="0 0 88 88" fill="none" xmlns="http://www.w3.org/2000/svg">
<mask id="path-1-inside-1_313_2729" fill="white">
<path fill-rule="evenodd" clip-rule="evenodd" d="M58.1228 0.0520702C57.3367 0.190919 56.9459 0.822169 56.2364 3.09941C55.3671 5.88998 55.3851 5.88374 52.4509 4.43335C50.7172 3.57638 50.1984 3.39547 49.7775 3.50108C49.0919 3.67299 46.2707 6.49331 46.0988 7.17874C45.9931 7.59952 46.1741 8.11818 47.0313 9.85141C48.4823 12.7851 48.4886 12.7672 45.697 13.6338C44.3481 14.0523 43.3688 14.4683 43.0814 14.7444C42.6379 15.1708 42.6221 15.2676 42.6221 17.5653C42.6221 19.8629 42.6379 19.9597 43.0814 20.3861C43.3688 20.6622 44.3481 21.0782 45.697 21.4967C48.4886 22.3633 48.4823 22.3454 47.0313 25.2791C46.1741 27.0123 45.9931 27.531 46.0988 27.9518C46.2707 28.6372 49.0919 31.4575 49.7775 31.6294C50.1984 31.735 50.7172 31.5541 52.4509 30.6972C55.3854 29.2466 55.3676 29.2403 56.2344 32.0311C56.6531 33.3796 57.0692 34.3587 57.3453 34.6459C57.7719 35.0893 57.8687 35.1051 60.167 35.1051C62.4653 35.1051 62.5621 35.0893 62.9887 34.6459C63.2645 34.359 63.6802 33.3821 64.096 32.043C64.9604 29.2589 64.9826 29.2514 67.9233 30.7148C69.6255 31.5618 70.1285 31.7369 70.5534 31.6303C71.242 31.4575 74.0627 28.6394 74.2353 27.9518C74.3409 27.531 74.1599 27.0123 73.3027 25.2791C71.8519 22.346 71.8457 22.364 74.6367 21.5024C76.0116 21.0778 76.9598 20.6749 77.2526 20.3905C77.6959 19.96 77.7119 19.8618 77.7119 17.5653C77.7119 15.2687 77.6959 15.1705 77.2526 14.74C76.9598 14.4557 76.0116 14.0527 74.6367 13.6281C71.8457 12.7665 71.8519 12.7845 73.3027 9.85141C74.1599 8.11818 74.3409 7.59952 74.2353 7.17874C74.0627 6.49111 71.242 3.67299 70.5534 3.50016C70.1285 3.39363 69.6255 3.56867 67.9233 4.41572C64.9826 5.87915 64.9604 5.87162 64.096 3.08747C63.1785 0.132882 63.1013 0.0652937 60.5903 0.0103785C59.4987 -0.0134977 58.3883 0.00523617 58.1228 0.0520702ZM61.5945 4.98434C61.9371 6.0955 62.3554 7.14146 62.5243 7.30859C62.6929 7.47591 63.4888 7.87281 64.2927 8.19073L65.7544 8.76871L67.8368 7.75214C69.5465 6.91758 69.9787 6.77285 70.2519 6.94329C71.0772 7.45846 71.0548 7.7031 69.983 9.89769L68.9661 11.9795L69.5443 13.4407C69.8623 14.2444 70.2593 15.0401 70.4266 15.2087C70.5938 15.3775 71.6401 15.796 72.7516 16.1391L74.7724 16.7628V17.5653V18.3677L72.7516 18.9914C71.6401 19.3345 70.5938 19.753 70.4266 19.9218C70.2593 20.0904 69.8623 20.8861 69.5443 21.6898L68.9661 23.151L69.983 25.2328C70.8178 26.942 70.9625 27.3741 70.7921 27.6472C70.2767 28.4723 70.032 28.4499 67.8368 27.3784L65.7544 26.3618L64.2927 26.9398C63.4888 27.2577 62.6929 27.6546 62.5243 27.8219C62.3554 27.989 61.9368 29.035 61.5936 30.1462L60.9697 32.1665H60.167H59.3644L58.7405 30.1462C58.3973 29.035 57.9786 27.989 57.8098 27.8219C57.6411 27.6546 56.8452 27.2577 56.0413 26.9398L54.5797 26.3618L52.4972 27.3784C50.302 28.4499 50.0573 28.4723 49.542 27.6472C49.3715 27.3741 49.5163 26.942 50.3511 25.2328L51.3679 23.151L50.7898 21.6898C50.4718 20.8861 50.0748 20.0904 49.9074 19.9218C49.7402 19.7534 48.6939 19.3308 47.5825 18.9831L45.5616 18.3508V17.5653V16.7797L47.5825 16.1474C48.6939 15.7997 49.7402 15.3771 49.9074 15.2087C50.0748 15.0401 50.4718 14.2444 50.7898 13.4407L51.3679 11.9795L50.3511 9.89769C49.2793 7.7031 49.2568 7.45846 50.0821 6.94329C50.3553 6.77285 50.7876 6.91758 52.4972 7.75214L54.5797 8.76871L56.0413 8.19073C56.8452 7.87281 57.6413 7.47591 57.8101 7.30859C57.979 7.14146 58.3824 6.13682 58.7065 5.07617C59.0305 4.01552 59.334 3.08141 59.3809 3.00023C59.4276 2.91905 59.8047 2.87772 60.2188 2.9084L60.9717 2.96405L61.5945 4.98434ZM78.3567 3.20116C78.0183 3.475 77.8199 4.18026 77.1675 7.43C76.7369 9.57518 76.4398 11.3644 76.5075 11.4061C76.7397 11.5497 79.0879 11.9349 79.1785 11.8443C79.2283 11.7944 79.4254 10.9912 79.6167 10.0593C79.8079 9.12741 80.0074 8.32186 80.06 8.26915C80.1127 8.21662 80.4022 8.81959 80.7037 9.60934C83.3364 16.5081 82.4738 23.8939 78.3195 30.024C77.8174 30.7651 77.4338 31.3909 77.4674 31.4145C77.5008 31.4384 78.0119 31.8452 78.6029 32.3185L79.6778 33.1792L80.0023 32.7646C82.122 30.0565 83.932 26.0106 84.7067 22.2487C85.1191 20.2451 85.1834 15.3949 84.8234 13.4328C84.5355 11.8644 83.6296 8.87138 83.0373 7.53266C82.7549 6.89407 82.6781 6.54805 82.8201 6.55264C82.9408 6.55668 83.7646 6.7115 84.6509 6.89664C85.5369 7.08177 86.2907 7.18187 86.3258 7.11887C86.4741 6.85366 86.842 4.50002 86.7496 4.40782C86.6354 4.29358 79.5287 2.87442 79.0642 2.87313C78.8985 2.87258 78.5803 3.02025 78.3567 3.20116ZM58.4434 10.4112C57.2808 10.7032 55.6263 11.6822 54.8231 12.5533C54.4106 13.0007 53.8114 13.919 53.4917 14.5936C52.9652 15.7046 52.9102 15.9861 52.9102 17.5748C52.9102 19.2305 52.9488 19.407 53.5964 20.7169C54.4228 22.3886 55.4865 23.4298 57.1945 24.2386C58.3043 24.7643 58.5887 24.8199 60.167 24.8199C61.7453 24.8199 62.0297 24.7643 63.1395 24.2386C64.8475 23.4298 65.9113 22.3886 66.7376 20.7169C67.386 19.4056 67.4238 19.232 67.4238 17.5653C67.4238 15.8985 67.386 15.7249 66.7376 14.4136C65.4963 11.9024 63.2907 10.4288 60.5802 10.2999C59.7972 10.2626 58.8356 10.3128 58.4434 10.4112ZM61.5236 13.3807C63.1024 13.847 64.5762 15.8673 64.5762 17.5653C64.5762 19.841 62.4434 21.9732 60.167 21.9732C57.8906 21.9732 55.7578 19.841 55.7578 17.5653C55.7578 16.4109 56.1782 15.4796 57.1295 14.5265C58.4182 13.2354 59.8064 12.8734 61.5236 13.3807ZM30.7195 17.5256C30.2435 18.009 29.8539 18.4814 29.8539 18.5754C29.8539 18.6694 30.2435 19.1418 30.7195 19.6252L31.5854 20.5039H29.5448C20.7278 20.5039 12.2118 23.4752 5.3443 28.9474C3.65999 30.2896 0.091858 33.8389 0.091858 34.1721C0.091858 34.2969 0.566397 34.7833 1.1462 35.2531L2.20073 36.1071L3.51871 34.6753C4.24366 33.8876 5.526 32.6594 6.36833 31.9457C12.8353 26.4667 21.0641 23.4425 29.5059 23.4425C30.5057 23.4425 31.3236 23.5084 31.3236 23.5888C31.3236 23.6693 30.9929 24.0581 30.5887 24.4526C30.1846 24.8471 29.8539 25.2398 29.8539 25.3252C29.8539 25.5276 31.6265 27.2994 31.8292 27.2994C31.9148 27.2994 33.0347 26.2386 34.318 24.9419C36.367 22.8718 36.6514 22.5098 36.6514 21.9732C36.6514 21.4365 36.367 21.0745 34.318 19.0044C33.0347 17.7078 31.8949 16.6469 31.7851 16.6469C31.6752 16.6469 31.1957 17.0424 30.7195 17.5256ZM26.8911 29.4389C26.1125 29.5752 25.6978 30.2143 25.3596 31.7991C25.1873 32.6072 24.9244 33.8187 24.7754 34.4911L24.5044 35.7135L23.1982 36.0337L21.892 36.3536L21.2486 35.6375C18.5388 32.6207 17.9612 32.0746 17.4789 32.0746C16.7286 32.0746 13.5559 33.7386 12.4468 34.7139C11.8556 35.2336 11.9184 35.8476 12.8531 38.6865L13.6696 41.1659L12.7365 42.1135L11.8036 43.061L10.9539 42.8073C10.4867 42.6679 9.36548 42.3036 8.46233 41.9976C6.26049 41.2517 5.77438 41.2664 5.08802 42.0988C4.29657 43.0588 2.66388 46.2701 2.66388 46.8668C2.66388 47.371 3.17149 47.9104 6.22779 50.654L6.9441 51.2972L6.62407 52.603L6.30385 53.9088L5.08104 54.1816C4.40845 54.3316 3.17755 54.5983 2.34569 54.7741C0.0450104 55.2602 0 55.3357 0 58.7058C0 62.0758 0.0450104 62.1513 2.34569 62.6374C3.17755 62.8132 4.40845 63.0799 5.08104 63.2299L6.30385 63.5027L6.62407 64.8085L6.9441 66.1144L6.22779 66.7575C3.21007 69.4666 2.66388 70.044 2.66388 70.5261C2.66388 71.4235 4.8806 75.3998 5.5936 75.7813C6.15192 76.0799 6.70527 76.009 8.46233 75.4139C9.36548 75.108 10.4867 74.7436 10.9539 74.6042L11.8036 74.3505L12.7365 75.2981L13.6696 76.2456L12.8531 78.725C12.0376 81.2019 11.932 81.7369 12.1482 82.3002C12.41 82.9821 16.5436 85.3369 17.4789 85.3369C17.9612 85.3369 18.5388 84.7909 21.2486 81.774L21.892 81.0579L23.1982 81.3779L24.5044 81.698L24.7772 82.9204C24.9273 83.5928 25.1941 84.8234 25.3699 85.655C25.8562 87.955 25.9317 88 29.3027 88C32.6737 88 32.7492 87.955 33.2355 85.655C33.4113 84.8234 33.6781 83.5928 33.8282 82.9204L34.101 81.698L35.4072 81.3779L36.7135 81.0579L37.3568 81.774C40.1012 84.8294 40.6408 85.3369 41.1451 85.3369C41.7969 85.3369 45.1592 83.5914 45.963 82.8358C46.7646 82.082 46.7475 81.7474 45.7523 78.725L44.9358 76.2456L45.8689 75.2981L46.8019 74.3505L47.6515 74.6042C48.1187 74.7436 49.2399 75.108 50.1431 75.4139C52.2777 76.137 52.7164 76.1299 53.4397 75.3612C54.1905 74.5632 55.9415 71.1981 55.9415 70.5535C55.9415 70.01 55.6241 69.6572 53.1131 67.409L51.6622 66.1103L51.9845 64.7957C52.1618 64.0726 52.3354 63.481 52.3703 63.481C52.405 63.481 53.6155 63.2263 55.0603 62.9149C58.7111 62.1279 58.6054 62.2534 58.6054 58.7058C58.6054 55.1581 58.7111 55.2836 55.0603 54.4966C53.6155 54.1853 52.405 53.9305 52.3703 53.9305C52.3354 53.9305 52.1618 53.3389 51.9845 52.6159L51.6622 51.3012L53.1131 50.0025C55.5998 47.7762 55.9415 47.3985 55.9415 46.8766C55.9415 46.1342 54.2712 42.9568 53.3015 41.8547C52.7814 41.2635 52.1667 41.3265 49.3278 42.2622L46.8476 43.0797L45.8816 42.1195L44.9158 41.1591L45.7438 38.6907C46.7504 35.6909 46.7693 35.3339 45.963 34.5757C45.1592 33.8202 41.7969 32.0746 41.1451 32.0746C40.6408 32.0746 40.1012 32.5821 37.3568 35.6375L36.7135 36.3536L35.4072 36.0337L34.101 35.7135L33.8282 34.4911C33.6781 33.8187 33.4113 32.5882 33.2355 31.7565C32.7636 29.5241 32.6282 29.4334 29.7082 29.3895C28.4242 29.3702 27.1565 29.3924 26.8911 29.4389ZM30.9183 34.9471C31.242 36.4519 31.6297 37.7825 31.7983 37.9687C31.964 38.1518 32.5657 38.3972 33.1354 38.5142C33.7051 38.631 34.8214 38.9308 35.6159 39.1804C36.4107 39.43 37.2431 39.5883 37.4658 39.5324C37.7963 39.4496 38.9182 38.3107 41.3447 35.5949C41.5252 35.3931 41.7267 35.4327 42.4924 35.8206L43.4215 36.2912L42.9824 37.7184C42.741 38.5034 42.375 39.6338 42.1695 40.2305C41.9637 40.8271 41.7954 41.5072 41.7954 41.7415C41.7954 42.328 45.6744 46.218 46.2546 46.2136C46.4798 46.2117 47.7985 45.8486 49.1852 45.4065L51.7065 44.6026L52.1754 45.4414C52.4331 45.9026 52.6214 46.3392 52.5935 46.4114C52.5656 46.4837 51.6531 47.3477 50.5655 48.3316C49.478 49.3153 48.5413 50.3069 48.4841 50.535C48.4268 50.7633 48.5841 51.5998 48.8338 52.3944C49.0834 53.1887 49.3832 54.3046 49.5001 54.8742C49.6171 55.4437 49.8572 56.0406 50.034 56.2004C50.2107 56.3604 51.5709 56.7569 53.0567 57.082L55.7578 57.6727V58.7058V59.7389L53.0567 60.3295C51.5709 60.6546 50.2107 61.0511 50.034 61.2111C49.8572 61.3709 49.6171 61.9678 49.5001 62.5373C49.3832 63.1069 49.0834 64.2228 48.8338 65.0172C48.5841 65.8117 48.4257 66.6439 48.4816 66.8665C48.5644 67.1969 49.7037 68.3185 52.4203 70.7443C52.6222 70.9247 52.5828 71.1256 52.1959 71.8891L51.7265 72.8149L50.9404 72.5742C50.5081 72.4417 49.3605 72.0773 48.3903 71.7642C47.4199 71.451 46.4502 71.1948 46.2356 71.1948C45.6722 71.1948 41.7954 75.1021 41.7954 75.67C41.7954 75.9043 41.9637 76.5844 42.1695 77.181C42.375 77.7777 42.741 78.9081 42.9824 79.6931L43.4215 81.1204L42.4924 81.5909C41.7267 81.9788 41.5252 82.0185 41.3447 81.8166C38.9182 79.1008 37.7963 77.9619 37.4658 77.8791C37.2431 77.8232 36.4107 77.9816 35.6159 78.2312C34.8214 78.4808 33.7051 78.7805 33.1354 78.8973C32.5657 79.0143 31.9686 79.2543 31.8088 79.431C31.6488 79.6077 31.2521 80.9675 30.9269 82.4528L30.3361 85.1532H29.3009H28.2658L27.6871 82.4644C27.3634 80.9596 26.9758 79.629 26.8071 79.4428C26.6414 79.2597 26.0397 79.0143 25.47 78.8973C24.9003 78.7805 23.7841 78.4808 22.9895 78.2312C22.1947 77.9816 21.3623 77.8232 21.1397 77.8791C20.8071 77.9625 19.7713 79.0139 17.2546 81.8227C17.0667 82.0324 16.8796 81.9918 16.1137 81.5751L15.1974 81.0765L15.6298 79.6713C15.8676 78.8982 16.2304 77.7777 16.436 77.181C16.6417 76.5844 16.81 75.9043 16.81 75.67C16.81 75.1008 12.9332 71.1948 12.3683 71.1948C12.0452 71.1948 10.1183 71.7627 7.41478 72.6546C6.96504 72.803 6.89321 72.7477 6.42896 71.8948C6.01064 71.1265 5.96949 70.9383 6.17911 70.752C8.86118 68.3679 10.0373 67.2114 10.1218 66.8745C10.1788 66.6475 10.0213 65.8117 9.77168 65.0172C9.52201 64.2228 9.22218 63.1069 9.10534 62.5373C8.98831 61.9678 8.74139 61.3648 8.55639 61.1975C8.36625 61.0254 7.05176 60.6412 5.53371 60.3139L2.8476 59.7346V58.7058V57.6769L5.53371 57.0976C7.05176 56.7703 8.36625 56.3861 8.55639 56.214C8.74139 56.0467 8.98831 55.4437 9.10534 54.8742C9.22218 54.3046 9.52201 53.1887 9.77168 52.3944C10.0213 51.5998 10.1777 50.7592 10.1193 50.5263C10.0607 50.2933 9.12407 49.3011 8.03776 48.3213C6.95145 47.3414 6.03985 46.4813 6.01192 46.4099C5.984 46.3384 6.17286 45.9013 6.43153 45.4387L6.90203 44.5973L8.3194 45.0331C9.09909 45.2728 10.2253 45.6372 10.8222 45.8427C11.4189 46.0484 12.0992 46.2167 12.3336 46.2167C12.9314 46.2167 16.81 42.3392 16.81 41.7415C16.81 41.5072 16.6417 40.8271 16.436 40.2305C16.2304 39.6338 15.8659 38.508 15.6262 37.7285L15.1902 36.3115L16.0318 35.8412C16.4946 35.5826 16.9326 35.3938 17.0048 35.4217C17.0771 35.4496 17.9413 36.3619 18.9255 37.4492C19.9095 38.5363 20.9014 39.4728 21.1296 39.5299C21.3579 39.5872 22.1947 39.43 22.9895 39.1804C23.7841 38.9308 24.9003 38.631 25.47 38.5142C26.0397 38.3972 26.6414 38.1518 26.8071 37.9687C26.9758 37.7825 27.3634 36.4519 27.6871 34.9471L28.2658 32.2583H29.3027H30.3396L30.9183 34.9471ZM71.4997 36.8427C70.6794 37.1052 70.5058 37.3393 69.9947 38.8735C69.5547 40.1942 69.4594 40.3365 68.8869 40.5253C68.3235 40.7112 68.1113 40.6645 66.772 40.0599C64.9556 39.2401 64.7893 39.2828 63.0521 41.0197C61.3147 42.7565 61.2719 42.9227 62.092 44.7386C62.6944 46.0721 62.7429 46.2912 62.5596 46.847C62.3734 47.4103 62.2191 47.5143 60.8719 47.9832C58.9036 48.6682 58.7891 48.8535 58.7891 51.3592C58.7891 53.865 58.9036 54.0503 60.8719 54.7353C62.2191 55.2042 62.3734 55.3082 62.5596 55.8715C62.7429 56.4272 62.6944 56.6463 62.092 57.9799C61.2719 59.7958 61.3147 59.962 63.0521 61.6987C64.7893 63.4356 64.9556 63.4784 66.772 62.6586C68.1059 62.0563 68.3251 62.0078 68.881 62.1911C69.4445 62.3772 69.5485 62.5315 70.0175 63.8783C70.7028 65.846 70.8881 65.9604 73.3946 65.9604C75.901 65.9604 76.0864 65.846 76.7716 63.8783C77.2407 62.5315 77.3447 62.3772 77.9081 62.1911C78.464 62.0078 78.6832 62.0563 80.0172 62.6586C81.8336 63.4784 81.9998 63.4356 83.7371 61.6987C85.4744 59.962 85.5173 59.7958 84.6972 57.9799C84.0947 56.6463 84.0462 56.4272 84.2296 55.8715C84.4157 55.3082 84.57 55.2042 85.9172 54.7353C87.8855 54.0503 88 53.865 88 51.3592C88 48.8309 87.8708 48.6219 85.9049 47.9674C84.5619 47.5203 84.4208 47.4263 84.2316 46.8529C84.0457 46.2896 84.0924 46.0775 84.6972 44.7386C85.5173 42.9227 85.4744 42.7565 83.7371 41.0197C81.9998 39.2828 81.8336 39.2401 80.0172 40.0599C78.6832 40.6622 78.464 40.7106 77.9081 40.5273C77.3447 40.3413 77.2407 40.187 76.7716 38.8402C76.422 37.8361 76.1114 37.2635 75.8088 37.0653C75.2914 36.7264 72.3397 36.574 71.4997 36.8427ZM74.41 40.9793C74.6857 41.7353 75.0041 42.4281 75.1175 42.5188C75.4426 42.7791 77.6568 43.6737 78.2403 43.7808C78.6099 43.8485 79.1493 43.6935 80.0352 43.265L81.3015 42.6527L81.6881 43.0391L82.0748 43.4255L81.4784 44.7189C81.0754 45.593 80.913 46.1792 80.9773 46.5276C81.0831 47.1019 81.9805 49.3158 82.2376 49.6368C82.3283 49.7502 83.0213 50.0685 83.7775 50.3441C85.0411 50.8049 85.1524 50.8872 85.1524 51.3592C85.1524 51.8313 85.0411 51.9135 83.7775 52.3743C83.0213 52.65 82.3283 52.9683 82.2376 53.0816C81.9772 53.4067 81.0824 55.6202 80.9753 56.2035C80.9075 56.5731 81.0625 57.1123 81.4911 57.9979L82.1036 59.2639L81.7171 59.6503L81.3306 60.0369L80.0368 59.4408C79.1625 59.0378 78.5761 58.8755 78.2276 58.9397C77.6531 59.0455 75.4386 59.9427 75.1175 60.1997C75.0041 60.2904 74.6857 60.9832 74.41 61.7391C73.949 63.0024 73.8667 63.1137 73.3946 63.1137C72.9224 63.1137 72.8401 63.0024 72.3792 61.7391C72.1034 60.9832 71.785 60.2904 71.6717 60.1997C71.3505 59.9427 69.136 59.0455 68.5616 58.9397C68.213 58.8755 67.6266 59.0378 66.7523 59.4408L65.4586 60.0369L65.0866 59.6648L64.7144 59.2929L65.3107 57.9996C65.7138 57.1255 65.8762 56.5393 65.8119 56.1909C65.7046 55.6083 64.8069 53.4005 64.5444 53.073C64.4498 52.9551 63.7568 52.634 63.0045 52.3598C61.7534 51.9036 61.6367 51.8177 61.6367 51.3534C61.6367 50.8885 61.7534 50.8029 63.0117 50.3441C63.7678 50.0685 64.4608 49.7502 64.5516 49.6368C64.8086 49.3158 65.7061 47.1019 65.8119 46.5276C65.8762 46.1792 65.7138 45.593 65.3107 44.7189L64.7144 43.4255L65.0866 43.0536L65.4586 42.6815L66.7523 43.2777C67.6266 43.6807 68.213 43.843 68.5616 43.7787C69.136 43.6729 71.3505 42.7757 71.6717 42.5188C71.785 42.4281 72.1034 41.7353 72.3792 40.9793C72.8401 39.7161 72.9224 39.6048 73.3946 39.6048C73.8667 39.6048 73.949 39.7161 74.41 40.9793ZM26.2979 42.8371C19.8678 43.9984 14.5468 49.3784 13.4159 55.8621C11.4935 66.8824 21.0673 76.5262 32.0289 74.6112C40.8151 73.0763 46.7372 64.7016 45.2111 55.9699C43.6585 47.0876 35.2171 41.2262 26.2979 42.8371ZM33.2526 46.1067C35.3374 46.7704 36.8874 47.7372 38.5809 49.4302C40.2597 51.1085 41.2253 52.6471 41.9238 54.757C42.6365 56.9095 42.6365 60.502 41.9238 62.6545C41.2253 64.7644 40.2597 66.303 38.5809 67.9813C36.9021 69.6596 35.3631 70.6249 33.2526 71.3232C31.9548 71.7526 31.4926 71.8096 29.3027 71.8096C27.1128 71.8096 26.6506 71.7526 25.3528 71.3232C23.2528 70.6284 21.7162 69.6642 20.0258 67.9807C18.3466 66.3083 17.3834 64.7742 16.6816 62.6545C16.2521 61.3571 16.1951 60.895 16.1951 58.7058C16.1951 56.5165 16.2521 56.0544 16.6816 54.757C17.3803 52.6467 18.3459 51.1084 20.0245 49.4308C22.0909 47.3657 24.3488 46.145 26.9811 45.6701C28.623 45.3737 31.6017 45.5812 33.2526 46.1067ZM72.0167 45.6414C70.3225 46.0865 68.8344 47.3082 68.0718 48.8798C67.7095 49.6266 67.6252 50.0896 67.6204 51.3592C67.6149 52.7907 67.6663 53.0166 68.2386 54.0776C68.9338 55.3666 69.5103 55.9231 70.8947 56.6423C71.6948 57.0579 72.0628 57.1297 73.3946 57.1297C74.7263 57.1297 75.0943 57.0579 75.8944 56.6423C77.2789 55.9231 77.8554 55.3666 78.5506 54.0776C79.1221 53.0179 79.1745 52.7889 79.1708 51.3592C79.1673 50.0326 79.0934 49.6572 78.6792 48.8601C77.9632 47.4828 77.4022 46.8986 76.1599 46.2367C74.9756 45.6056 73.1508 45.3434 72.0167 45.6414ZM74.5573 48.6712C76.4448 49.4596 76.905 51.9336 75.4371 53.4012C73.3731 55.4647 69.9907 53.6165 70.5337 50.7217C70.8584 48.9927 72.8712 47.9668 74.5573 48.6712Z"/>
</mask>
<path fill-rule="evenodd" clip-rule="evenodd" d="M58.1228 0.0520702C57.3367 0.190919 56.9459 0.822169 56.2364 3.09941C55.3671 5.88998 55.3851 5.88374 52.4509 4.43335C50.7172 3.57638 50.1984 3.39547 49.7775 3.50108C49.0919 3.67299 46.2707 6.49331 46.0988 7.17874C45.9931 7.59952 46.1741 8.11818 47.0313 9.85141C48.4823 12.7851 48.4886 12.7672 45.697 13.6338C44.3481 14.0523 43.3688 14.4683 43.0814 14.7444C42.6379 15.1708 42.6221 15.2676 42.6221 17.5653C42.6221 19.8629 42.6379 19.9597 43.0814 20.3861C43.3688 20.6622 44.3481 21.0782 45.697 21.4967C48.4886 22.3633 48.4823 22.3454 47.0313 25.2791C46.1741 27.0123 45.9931 27.531 46.0988 27.9518C46.2707 28.6372 49.0919 31.4575 49.7775 31.6294C50.1984 31.735 50.7172 31.5541 52.4509 30.6972C55.3854 29.2466 55.3676 29.2403 56.2344 32.0311C56.6531 33.3796 57.0692 34.3587 57.3453 34.6459C57.7719 35.0893 57.8687 35.1051 60.167 35.1051C62.4653 35.1051 62.5621 35.0893 62.9887 34.6459C63.2645 34.359 63.6802 33.3821 64.096 32.043C64.9604 29.2589 64.9826 29.2514 67.9233 30.7148C69.6255 31.5618 70.1285 31.7369 70.5534 31.6303C71.242 31.4575 74.0627 28.6394 74.2353 27.9518C74.3409 27.531 74.1599 27.0123 73.3027 25.2791C71.8519 22.346 71.8457 22.364 74.6367 21.5024C76.0116 21.0778 76.9598 20.6749 77.2526 20.3905C77.6959 19.96 77.7119 19.8618 77.7119 17.5653C77.7119 15.2687 77.6959 15.1705 77.2526 14.74C76.9598 14.4557 76.0116 14.0527 74.6367 13.6281C71.8457 12.7665 71.8519 12.7845 73.3027 9.85141C74.1599 8.11818 74.3409 7.59952 74.2353 7.17874C74.0627 6.49111 71.242 3.67299 70.5534 3.50016C70.1285 3.39363 69.6255 3.56867 67.9233 4.41572C64.9826 5.87915 64.9604 5.87162 64.096 3.08747C63.1785 0.132882 63.1013 0.0652937 60.5903 0.0103785C59.4987 -0.0134977 58.3883 0.00523617 58.1228 0.0520702ZM61.5945 4.98434C61.9371 6.0955 62.3554 7.14146 62.5243 7.30859C62.6929 7.47591 63.4888 7.87281 64.2927 8.19073L65.7544 8.76871L67.8368 7.75214C69.5465 6.91758 69.9787 6.77285 70.2519 6.94329C71.0772 7.45846 71.0548 7.7031 69.983 9.89769L68.9661 11.9795L69.5443 13.4407C69.8623 14.2444 70.2593 15.0401 70.4266 15.2087C70.5938 15.3775 71.6401 15.796 72.7516 16.1391L74.7724 16.7628V17.5653V18.3677L72.7516 18.9914C71.6401 19.3345 70.5938 19.753 70.4266 19.9218C70.2593 20.0904 69.8623 20.8861 69.5443 21.6898L68.9661 23.151L69.983 25.2328C70.8178 26.942 70.9625 27.3741 70.7921 27.6472C70.2767 28.4723 70.032 28.4499 67.8368 27.3784L65.7544 26.3618L64.2927 26.9398C63.4888 27.2577 62.6929 27.6546 62.5243 27.8219C62.3554 27.989 61.9368 29.035 61.5936 30.1462L60.9697 32.1665H60.167H59.3644L58.7405 30.1462C58.3973 29.035 57.9786 27.989 57.8098 27.8219C57.6411 27.6546 56.8452 27.2577 56.0413 26.9398L54.5797 26.3618L52.4972 27.3784C50.302 28.4499 50.0573 28.4723 49.542 27.6472C49.3715 27.3741 49.5163 26.942 50.3511 25.2328L51.3679 23.151L50.7898 21.6898C50.4718 20.8861 50.0748 20.0904 49.9074 19.9218C49.7402 19.7534 48.6939 19.3308 47.5825 18.9831L45.5616 18.3508V17.5653V16.7797L47.5825 16.1474C48.6939 15.7997 49.7402 15.3771 49.9074 15.2087C50.0748 15.0401 50.4718 14.2444 50.7898 13.4407L51.3679 11.9795L50.3511 9.89769C49.2793 7.7031 49.2568 7.45846 50.0821 6.94329C50.3553 6.77285 50.7876 6.91758 52.4972 7.75214L54.5797 8.76871L56.0413 8.19073C56.8452 7.87281 57.6413 7.47591 57.8101 7.30859C57.979 7.14146 58.3824 6.13682 58.7065 5.07617C59.0305 4.01552 59.334 3.08141 59.3809 3.00023C59.4276 2.91905 59.8047 2.87772 60.2188 2.9084L60.9717 2.96405L61.5945 4.98434ZM78.3567 3.20116C78.0183 3.475 77.8199 4.18026 77.1675 7.43C76.7369 9.57518 76.4398 11.3644 76.5075 11.4061C76.7397 11.5497 79.0879 11.9349 79.1785 11.8443C79.2283 11.7944 79.4254 10.9912 79.6167 10.0593C79.8079 9.12741 80.0074 8.32186 80.06 8.26915C80.1127 8.21662 80.4022 8.81959 80.7037 9.60934C83.3364 16.5081 82.4738 23.8939 78.3195 30.024C77.8174 30.7651 77.4338 31.3909 77.4674 31.4145C77.5008 31.4384 78.0119 31.8452 78.6029 32.3185L79.6778 33.1792L80.0023 32.7646C82.122 30.0565 83.932 26.0106 84.7067 22.2487C85.1191 20.2451 85.1834 15.3949 84.8234 13.4328C84.5355 11.8644 83.6296 8.87138 83.0373 7.53266C82.7549 6.89407 82.6781 6.54805 82.8201 6.55264C82.9408 6.55668 83.7646 6.7115 84.6509 6.89664C85.5369 7.08177 86.2907 7.18187 86.3258 7.11887C86.4741 6.85366 86.842 4.50002 86.7496 4.40782C86.6354 4.29358 79.5287 2.87442 79.0642 2.87313C78.8985 2.87258 78.5803 3.02025 78.3567 3.20116ZM58.4434 10.4112C57.2808 10.7032 55.6263 11.6822 54.8231 12.5533C54.4106 13.0007 53.8114 13.919 53.4917 14.5936C52.9652 15.7046 52.9102 15.9861 52.9102 17.5748C52.9102 19.2305 52.9488 19.407 53.5964 20.7169C54.4228 22.3886 55.4865 23.4298 57.1945 24.2386C58.3043 24.7643 58.5887 24.8199 60.167 24.8199C61.7453 24.8199 62.0297 24.7643 63.1395 24.2386C64.8475 23.4298 65.9113 22.3886 66.7376 20.7169C67.386 19.4056 67.4238 19.232 67.4238 17.5653C67.4238 15.8985 67.386 15.7249 66.7376 14.4136C65.4963 11.9024 63.2907 10.4288 60.5802 10.2999C59.7972 10.2626 58.8356 10.3128 58.4434 10.4112ZM61.5236 13.3807C63.1024 13.847 64.5762 15.8673 64.5762 17.5653C64.5762 19.841 62.4434 21.9732 60.167 21.9732C57.8906 21.9732 55.7578 19.841 55.7578 17.5653C55.7578 16.4109 56.1782 15.4796 57.1295 14.5265C58.4182 13.2354 59.8064 12.8734 61.5236 13.3807ZM30.7195 17.5256C30.2435 18.009 29.8539 18.4814 29.8539 18.5754C29.8539 18.6694 30.2435 19.1418 30.7195 19.6252L31.5854 20.5039H29.5448C20.7278 20.5039 12.2118 23.4752 5.3443 28.9474C3.65999 30.2896 0.091858 33.8389 0.091858 34.1721C0.091858 34.2969 0.566397 34.7833 1.1462 35.2531L2.20073 36.1071L3.51871 34.6753C4.24366 33.8876 5.526 32.6594 6.36833 31.9457C12.8353 26.4667 21.0641 23.4425 29.5059 23.4425C30.5057 23.4425 31.3236 23.5084 31.3236 23.5888C31.3236 23.6693 30.9929 24.0581 30.5887 24.4526C30.1846 24.8471 29.8539 25.2398 29.8539 25.3252C29.8539 25.5276 31.6265 27.2994 31.8292 27.2994C31.9148 27.2994 33.0347 26.2386 34.318 24.9419C36.367 22.8718 36.6514 22.5098 36.6514 21.9732C36.6514 21.4365 36.367 21.0745 34.318 19.0044C33.0347 17.7078 31.8949 16.6469 31.7851 16.6469C31.6752 16.6469 31.1957 17.0424 30.7195 17.5256ZM26.8911 29.4389C26.1125 29.5752 25.6978 30.2143 25.3596 31.7991C25.1873 32.6072 24.9244 33.8187 24.7754 34.4911L24.5044 35.7135L23.1982 36.0337L21.892 36.3536L21.2486 35.6375C18.5388 32.6207 17.9612 32.0746 17.4789 32.0746C16.7286 32.0746 13.5559 33.7386 12.4468 34.7139C11.8556 35.2336 11.9184 35.8476 12.8531 38.6865L13.6696 41.1659L12.7365 42.1135L11.8036 43.061L10.9539 42.8073C10.4867 42.6679 9.36548 42.3036 8.46233 41.9976C6.26049 41.2517 5.77438 41.2664 5.08802 42.0988C4.29657 43.0588 2.66388 46.2701 2.66388 46.8668C2.66388 47.371 3.17149 47.9104 6.22779 50.654L6.9441 51.2972L6.62407 52.603L6.30385 53.9088L5.08104 54.1816C4.40845 54.3316 3.17755 54.5983 2.34569 54.7741C0.0450104 55.2602 0 55.3357 0 58.7058C0 62.0758 0.0450104 62.1513 2.34569 62.6374C3.17755 62.8132 4.40845 63.0799 5.08104 63.2299L6.30385 63.5027L6.62407 64.8085L6.9441 66.1144L6.22779 66.7575C3.21007 69.4666 2.66388 70.044 2.66388 70.5261C2.66388 71.4235 4.8806 75.3998 5.5936 75.7813C6.15192 76.0799 6.70527 76.009 8.46233 75.4139C9.36548 75.108 10.4867 74.7436 10.9539 74.6042L11.8036 74.3505L12.7365 75.2981L13.6696 76.2456L12.8531 78.725C12.0376 81.2019 11.932 81.7369 12.1482 82.3002C12.41 82.9821 16.5436 85.3369 17.4789 85.3369C17.9612 85.3369 18.5388 84.7909 21.2486 81.774L21.892 81.0579L23.1982 81.3779L24.5044 81.698L24.7772 82.9204C24.9273 83.5928 25.1941 84.8234 25.3699 85.655C25.8562 87.955 25.9317 88 29.3027 88C32.6737 88 32.7492 87.955 33.2355 85.655C33.4113 84.8234 33.6781 83.5928 33.8282 82.9204L34.101 81.698L35.4072 81.3779L36.7135 81.0579L37.3568 81.774C40.1012 84.8294 40.6408 85.3369 41.1451 85.3369C41.7969 85.3369 45.1592 83.5914 45.963 82.8358C46.7646 82.082 46.7475 81.7474 45.7523 78.725L44.9358 76.2456L45.8689 75.2981L46.8019 74.3505L47.6515 74.6042C48.1187 74.7436 49.2399 75.108 50.1431 75.4139C52.2777 76.137 52.7164 76.1299 53.4397 75.3612C54.1905 74.5632 55.9415 71.1981 55.9415 70.5535C55.9415 70.01 55.6241 69.6572 53.1131 67.409L51.6622 66.1103L51.9845 64.7957C52.1618 64.0726 52.3354 63.481 52.3703 63.481C52.405 63.481 53.6155 63.2263 55.0603 62.9149C58.7111 62.1279 58.6054 62.2534 58.6054 58.7058C58.6054 55.1581 58.7111 55.2836 55.0603 54.4966C53.6155 54.1853 52.405 53.9305 52.3703 53.9305C52.3354 53.9305 52.1618 53.3389 51.9845 52.6159L51.6622 51.3012L53.1131 50.0025C55.5998 47.7762 55.9415 47.3985 55.9415 46.8766C55.9415 46.1342 54.2712 42.9568 53.3015 41.8547C52.7814 41.2635 52.1667 41.3265 49.3278 42.2622L46.8476 43.0797L45.8816 42.1195L44.9158 41.1591L45.7438 38.6907C46.7504 35.6909 46.7693 35.3339 45.963 34.5757C45.1592 33.8202 41.7969 32.0746 41.1451 32.0746C40.6408 32.0746 40.1012 32.5821 37.3568 35.6375L36.7135 36.3536L35.4072 36.0337L34.101 35.7135L33.8282 34.4911C33.6781 33.8187 33.4113 32.5882 33.2355 31.7565C32.7636 29.5241 32.6282 29.4334 29.7082 29.3895C28.4242 29.3702 27.1565 29.3924 26.8911 29.4389ZM30.9183 34.9471C31.242 36.4519 31.6297 37.7825 31.7983 37.9687C31.964 38.1518 32.5657 38.3972 33.1354 38.5142C33.7051 38.631 34.8214 38.9308 35.6159 39.1804C36.4107 39.43 37.2431 39.5883 37.4658 39.5324C37.7963 39.4496 38.9182 38.3107 41.3447 35.5949C41.5252 35.3931 41.7267 35.4327 42.4924 35.8206L43.4215 36.2912L42.9824 37.7184C42.741 38.5034 42.375 39.6338 42.1695 40.2305C41.9637 40.8271 41.7954 41.5072 41.7954 41.7415C41.7954 42.328 45.6744 46.218 46.2546 46.2136C46.4798 46.2117 47.7985 45.8486 49.1852 45.4065L51.7065 44.6026L52.1754 45.4414C52.4331 45.9026 52.6214 46.3392 52.5935 46.4114C52.5656 46.4837 51.6531 47.3477 50.5655 48.3316C49.478 49.3153 48.5413 50.3069 48.4841 50.535C48.4268 50.7633 48.5841 51.5998 48.8338 52.3944C49.0834 53.1887 49.3832 54.3046 49.5001 54.8742C49.6171 55.4437 49.8572 56.0406 50.034 56.2004C50.2107 56.3604 51.5709 56.7569 53.0567 57.082L55.7578 57.6727V58.7058V59.7389L53.0567 60.3295C51.5709 60.6546 50.2107 61.0511 50.034 61.2111C49.8572 61.3709 49.6171 61.9678 49.5001 62.5373C49.3832 63.1069 49.0834 64.2228 48.8338 65.0172C48.5841 65.8117 48.4257 66.6439 48.4816 66.8665C48.5644 67.1969 49.7037 68.3185 52.4203 70.7443C52.6222 70.9247 52.5828 71.1256 52.1959 71.8891L51.7265 72.8149L50.9404 72.5742C50.5081 72.4417 49.3605 72.0773 48.3903 71.7642C47.4199 71.451 46.4502 71.1948 46.2356 71.1948C45.6722 71.1948 41.7954 75.1021 41.7954 75.67C41.7954 75.9043 41.9637 76.5844 42.1695 77.181C42.375 77.7777 42.741 78.9081 42.9824 79.6931L43.4215 81.1204L42.4924 81.5909C41.7267 81.9788 41.5252 82.0185 41.3447 81.8166C38.9182 79.1008 37.7963 77.9619 37.4658 77.8791C37.2431 77.8232 36.4107 77.9816 35.6159 78.2312C34.8214 78.4808 33.7051 78.7805 33.1354 78.8973C32.5657 79.0143 31.9686 79.2543 31.8088 79.431C31.6488 79.6077 31.2521 80.9675 30.9269 82.4528L30.3361 85.1532H29.3009H28.2658L27.6871 82.4644C27.3634 80.9596 26.9758 79.629 26.8071 79.4428C26.6414 79.2597 26.0397 79.0143 25.47 78.8973C24.9003 78.7805 23.7841 78.4808 22.9895 78.2312C22.1947 77.9816 21.3623 77.8232 21.1397 77.8791C20.8071 77.9625 19.7713 79.0139 17.2546 81.8227C17.0667 82.0324 16.8796 81.9918 16.1137 81.5751L15.1974 81.0765L15.6298 79.6713C15.8676 78.8982 16.2304 77.7777 16.436 77.181C16.6417 76.5844 16.81 75.9043 16.81 75.67C16.81 75.1008 12.9332 71.1948 12.3683 71.1948C12.0452 71.1948 10.1183 71.7627 7.41478 72.6546C6.96504 72.803 6.89321 72.7477 6.42896 71.8948C6.01064 71.1265 5.96949 70.9383 6.17911 70.752C8.86118 68.3679 10.0373 67.2114 10.1218 66.8745C10.1788 66.6475 10.0213 65.8117 9.77168 65.0172C9.52201 64.2228 9.22218 63.1069 9.10534 62.5373C8.98831 61.9678 8.74139 61.3648 8.55639 61.1975C8.36625 61.0254 7.05176 60.6412 5.53371 60.3139L2.8476 59.7346V58.7058V57.6769L5.53371 57.0976C7.05176 56.7703 8.36625 56.3861 8.55639 56.214C8.74139 56.0467 8.98831 55.4437 9.10534 54.8742C9.22218 54.3046 9.52201 53.1887 9.77168 52.3944C10.0213 51.5998 10.1777 50.7592 10.1193 50.5263C10.0607 50.2933 9.12407 49.3011 8.03776 48.3213C6.95145 47.3414 6.03985 46.4813 6.01192 46.4099C5.984 46.3384 6.17286 45.9013 6.43153 45.4387L6.90203 44.5973L8.3194 45.0331C9.09909 45.2728 10.2253 45.6372 10.8222 45.8427C11.4189 46.0484 12.0992 46.2167 12.3336 46.2167C12.9314 46.2167 16.81 42.3392 16.81 41.7415C16.81 41.5072 16.6417 40.8271 16.436 40.2305C16.2304 39.6338 15.8659 38.508 15.6262 37.7285L15.1902 36.3115L16.0318 35.8412C16.4946 35.5826 16.9326 35.3938 17.0048 35.4217C17.0771 35.4496 17.9413 36.3619 18.9255 37.4492C19.9095 38.5363 20.9014 39.4728 21.1296 39.5299C21.3579 39.5872 22.1947 39.43 22.9895 39.1804C23.7841 38.9308 24.9003 38.631 25.47 38.5142C26.0397 38.3972 26.6414 38.1518 26.8071 37.9687C26.9758 37.7825 27.3634 36.4519 27.6871 34.9471L28.2658 32.2583H29.3027H30.3396L30.9183 34.9471ZM71.4997 36.8427C70.6794 37.1052 70.5058 37.3393 69.9947 38.8735C69.5547 40.1942 69.4594 40.3365 68.8869 40.5253C68.3235 40.7112 68.1113 40.6645 66.772 40.0599C64.9556 39.2401 64.7893 39.2828 63.0521 41.0197C61.3147 42.7565 61.2719 42.9227 62.092 44.7386C62.6944 46.0721 62.7429 46.2912 62.5596 46.847C62.3734 47.4103 62.2191 47.5143 60.8719 47.9832C58.9036 48.6682 58.7891 48.8535 58.7891 51.3592C58.7891 53.865 58.9036 54.0503 60.8719 54.7353C62.2191 55.2042 62.3734 55.3082 62.5596 55.8715C62.7429 56.4272 62.6944 56.6463 62.092 57.9799C61.2719 59.7958 61.3147 59.962 63.0521 61.6987C64.7893 63.4356 64.9556 63.4784 66.772 62.6586C68.1059 62.0563 68.3251 62.0078 68.881 62.1911C69.4445 62.3772 69.5485 62.5315 70.0175 63.8783C70.7028 65.846 70.8881 65.9604 73.3946 65.9604C75.901 65.9604 76.0864 65.846 76.7716 63.8783C77.2407 62.5315 77.3447 62.3772 77.9081 62.1911C78.464 62.0078 78.6832 62.0563 80.0172 62.6586C81.8336 63.4784 81.9998 63.4356 83.7371 61.6987C85.4744 59.962 85.5173 59.7958 84.6972 57.9799C84.0947 56.6463 84.0462 56.4272 84.2296 55.8715C84.4157 55.3082 84.57 55.2042 85.9172 54.7353C87.8855 54.0503 88 53.865 88 51.3592C88 48.8309 87.8708 48.6219 85.9049 47.9674C84.5619 47.5203 84.4208 47.4263 84.2316 46.8529C84.0457 46.2896 84.0924 46.0775 84.6972 44.7386C85.5173 42.9227 85.4744 42.7565 83.7371 41.0197C81.9998 39.2828 81.8336 39.2401 80.0172 40.0599C78.6832 40.6622 78.464 40.7106 77.9081 40.5273C77.3447 40.3413 77.2407 40.187 76.7716 38.8402C76.422 37.8361 76.1114 37.2635 75.8088 37.0653C75.2914 36.7264 72.3397 36.574 71.4997 36.8427ZM74.41 40.9793C74.6857 41.7353 75.0041 42.4281 75.1175 42.5188C75.4426 42.7791 77.6568 43.6737 78.2403 43.7808C78.6099 43.8485 79.1493 43.6935 80.0352 43.265L81.3015 42.6527L81.6881 43.0391L82.0748 43.4255L81.4784 44.7189C81.0754 45.593 80.913 46.1792 80.9773 46.5276C81.0831 47.1019 81.9805 49.3158 82.2376 49.6368C82.3283 49.7502 83.0213 50.0685 83.7775 50.3441C85.0411 50.8049 85.1524 50.8872 85.1524 51.3592C85.1524 51.8313 85.0411 51.9135 83.7775 52.3743C83.0213 52.65 82.3283 52.9683 82.2376 53.0816C81.9772 53.4067 81.0824 55.6202 80.9753 56.2035C80.9075 56.5731 81.0625 57.1123 81.4911 57.9979L82.1036 59.2639L81.7171 59.6503L81.3306 60.0369L80.0368 59.4408C79.1625 59.0378 78.5761 58.8755 78.2276 58.9397C77.6531 59.0455 75.4386 59.9427 75.1175 60.1997C75.0041 60.2904 74.6857 60.9832 74.41 61.7391C73.949 63.0024 73.8667 63.1137 73.3946 63.1137C72.9224 63.1137 72.8401 63.0024 72.3792 61.7391C72.1034 60.9832 71.785 60.2904 71.6717 60.1997C71.3505 59.9427 69.136 59.0455 68.5616 58.9397C68.213 58.8755 67.6266 59.0378 66.7523 59.4408L65.4586 60.0369L65.0866 59.6648L64.7144 59.2929L65.3107 57.9996C65.7138 57.1255 65.8762 56.5393 65.8119 56.1909C65.7046 55.6083 64.8069 53.4005 64.5444 53.073C64.4498 52.9551 63.7568 52.634 63.0045 52.3598C61.7534 51.9036 61.6367 51.8177 61.6367 51.3534C61.6367 50.8885 61.7534 50.8029 63.0117 50.3441C63.7678 50.0685 64.4608 49.7502 64.5516 49.6368C64.8086 49.3158 65.7061 47.1019 65.8119 46.5276C65.8762 46.1792 65.7138 45.593 65.3107 44.7189L64.7144 43.4255L65.0866 43.0536L65.4586 42.6815L66.7523 43.2777C67.6266 43.6807 68.213 43.843 68.5616 43.7787C69.136 43.6729 71.3505 42.7757 71.6717 42.5188C71.785 42.4281 72.1034 41.7353 72.3792 40.9793C72.8401 39.7161 72.9224 39.6048 73.3946 39.6048C73.8667 39.6048 73.949 39.7161 74.41 40.9793ZM26.2979 42.8371C19.8678 43.9984 14.5468 49.3784 13.4159 55.8621C11.4935 66.8824 21.0673 76.5262 32.0289 74.6112C40.8151 73.0763 46.7372 64.7016 45.2111 55.9699C43.6585 47.0876 35.2171 41.2262 26.2979 42.8371ZM33.2526 46.1067C35.3374 46.7704 36.8874 47.7372 38.5809 49.4302C40.2597 51.1085 41.2253 52.6471 41.9238 54.757C42.6365 56.9095 42.6365 60.502 41.9238 62.6545C41.2253 64.7644 40.2597 66.303 38.5809 67.9813C36.9021 69.6596 35.3631 70.6249 33.2526 71.3232C31.9548 71.7526 31.4926 71.8096 29.3027 71.8096C27.1128 71.8096 26.6506 71.7526 25.3528 71.3232C23.2528 70.6284 21.7162 69.6642 20.0258 67.9807C18.3466 66.3083 17.3834 64.7742 16.6816 62.6545C16.2521 61.3571 16.1951 60.895 16.1951 58.7058C16.1951 56.5165 16.2521 56.0544 16.6816 54.757C17.3803 52.6467 18.3459 51.1084 20.0245 49.4308C22.0909 47.3657 24.3488 46.145 26.9811 45.6701C28.623 45.3737 31.6017 45.5812 33.2526 46.1067ZM72.0167 45.6414C70.3225 46.0865 68.8344 47.3082 68.0718 48.8798C67.7095 49.6266 67.6252 50.0896 67.6204 51.3592C67.6149 52.7907 67.6663 53.0166 68.2386 54.0776C68.9338 55.3666 69.5103 55.9231 70.8947 56.6423C71.6948 57.0579 72.0628 57.1297 73.3946 57.1297C74.7263 57.1297 75.0943 57.0579 75.8944 56.6423C77.2789 55.9231 77.8554 55.3666 78.5506 54.0776C79.1221 53.0179 79.1745 52.7889 79.1708 51.3592C79.1673 50.0326 79.0934 49.6572 78.6792 48.8601C77.9632 47.4828 77.4022 46.8986 76.1599 46.2367C74.9756 45.6056 73.1508 45.3434 72.0167 45.6414ZM74.5573 48.6712C76.4448 49.4596 76.905 51.9336 75.4371 53.4012C73.3731 55.4647 69.9907 53.6165 70.5337 50.7217C70.8584 48.9927 72.8712 47.9668 74.5573 48.6712Z" fill="white" stroke="white" stroke-width="1.46667" mask="url(#path-1-inside-1_313_2729)"/>
</svg>
