<svg width="87" height="87" viewBox="0 0 87 87" fill="none" xmlns="http://www.w3.org/2000/svg">
<mask id="path-1-inside-1_313_2678" fill="white">
<path fill-rule="evenodd" clip-rule="evenodd" d="M27.0087 0.243643C26.0889 0.533634 24.5201 2.15848 24.2381 3.11337C23.7145 4.88594 24.0829 6.26766 25.444 7.63738C25.9819 8.17875 26.554 8.62151 26.7154 8.62151C26.9682 8.62151 27.0087 9.00129 27.0087 11.3735V14.1257L30.0071 17.145L33.0055 20.1642V22.0784V23.9927H30.4505C27.2705 23.9927 26.631 24.1702 25.4094 25.3923C24.1877 26.6143 24.0102 27.2539 24.0102 30.4348V32.9905H16.3268C9.47967 32.9905 8.64329 32.9586 8.64329 32.6971C8.64329 32.5357 8.20065 31.9634 7.65943 31.4254C6.29009 30.064 4.90875 29.6954 3.13668 30.2192C2.10728 30.5234 0.554849 32.0763 0.250697 33.106C-0.268406 34.8635 0.0975893 36.2648 1.42196 37.5895C2.74632 38.9142 4.14715 39.2803 5.90423 38.7611C6.74248 38.5133 8.64329 36.7938 8.64329 36.2831C8.64329 36.0216 9.47967 35.9898 16.3268 35.9898H24.0102V38.989V41.9883H20.8244C18.0585 41.9883 17.6386 41.9497 17.6386 41.6949C17.6386 41.1843 15.7378 39.4648 14.8995 39.217C13.1424 38.6977 11.7416 39.0638 10.4172 40.3886C8.52129 42.285 8.52129 44.6908 10.4172 46.5873C11.7416 47.912 13.1424 48.2781 14.8995 47.7589C15.7378 47.511 17.6386 45.7915 17.6386 45.2809C17.6386 45.0262 18.0585 44.9875 20.8244 44.9875H24.0102V47.9868V50.9861H16.3268C9.47967 50.9861 8.64329 50.9542 8.64329 50.6927C8.64329 50.1821 6.74248 48.4626 5.90423 48.2147C4.14715 47.6955 2.74632 48.0616 1.42196 49.3863C-0.473986 51.2828 -0.473986 53.6886 1.42196 55.5851C2.74632 56.9098 4.14715 57.2759 5.90423 56.7566C6.74248 56.5088 8.64329 54.7893 8.64329 54.2787C8.64329 54.0172 9.47967 53.9853 16.3268 53.9853H24.0102V56.5411C24.0102 59.722 24.1877 60.3616 25.4094 61.5836C26.631 62.8056 27.2705 62.9831 30.4505 62.9831H33.0055V64.8974V66.8117L30.0071 69.8308L27.0087 72.8501V75.6023C27.0087 77.9745 26.9682 78.3543 26.7154 78.3543C26.2049 78.3543 24.4859 80.2557 24.2381 81.0941C23.719 82.8517 24.085 84.2529 25.4094 85.5777C26.7337 86.9024 28.1346 87.2685 29.8916 86.7492C30.921 86.445 32.4735 84.8921 32.7776 83.8625C33.3012 82.0899 32.9328 80.7082 31.5717 79.3384C31.0339 78.7973 30.4617 78.3543 30.3004 78.3543C30.0517 78.3543 30.0071 78.0347 30.0071 76.2526V74.1508L33.0055 71.1317L36.0039 68.1124V65.5477V62.9831H39.0024H42.0008V66.1698C42.0008 68.9364 41.9622 69.3565 41.7075 69.3565C41.197 69.3565 39.478 71.2579 39.2302 72.0964C38.7111 73.8539 39.0771 75.2551 40.4015 76.5799C42.2974 78.4763 44.7026 78.4763 46.5985 76.5799C47.9229 75.2551 48.2889 73.8539 47.7698 72.0964C47.522 71.2579 45.803 69.3565 45.2925 69.3565C45.0378 69.3565 44.9992 68.9364 44.9992 66.1698V62.9831H47.9976H50.9961V65.5477V68.1124L53.9945 71.1317L56.9929 74.1508V76.2526C56.9929 78.0347 56.9483 78.3543 56.6996 78.3543C56.1892 78.3543 54.4701 80.2557 54.2224 81.0941C53.7033 82.8517 54.0693 84.2529 55.3936 85.5777C57.2896 87.4741 59.6947 87.4741 61.5906 85.5777C63.5012 83.6666 63.4879 81.2825 61.556 79.3384C61.0181 78.7973 60.446 78.3543 60.2846 78.3543C60.0318 78.3543 59.9913 77.9745 59.9913 75.6023V72.8501L56.9929 69.8308L53.9945 66.8117V64.8974V62.9831H56.5848C59.8137 62.9831 60.5914 62.7568 61.734 61.4857C62.8102 60.2885 62.9898 59.5812 62.9898 56.5411V53.9853H70.6732C77.5203 53.9853 78.3567 54.0172 78.3567 54.2787C78.3567 54.7893 80.2575 56.5088 81.0958 56.7566C82.8528 57.2759 84.2537 56.9098 85.578 55.5851C87.474 53.6886 87.474 51.2828 85.578 49.3863C83.6675 47.4752 81.2841 47.4886 79.3406 49.421C78.7994 49.959 78.3567 50.5313 78.3567 50.6927C78.3567 50.9542 77.5203 50.9861 70.6732 50.9861H62.9898V47.9868V44.9875H66.1756C68.9415 44.9875 69.3614 45.0262 69.3614 45.2809C69.3614 45.7915 71.2622 47.511 72.1005 47.7589C73.8576 48.2781 75.2584 47.912 76.5828 46.5873C78.4787 44.6908 78.4787 42.285 76.5828 40.3886C75.2584 39.0638 73.8576 38.6977 72.1005 39.217C71.2622 39.4648 69.3614 41.1843 69.3614 41.6949C69.3614 41.9497 68.9415 41.9883 66.1756 41.9883H62.9898V38.989V35.9898H70.6732C77.5203 35.9898 78.3567 36.0216 78.3567 36.2831C78.3567 36.7938 80.2575 38.5133 81.0958 38.7611C82.8528 39.2803 84.2537 38.9142 85.578 37.5895C87.474 35.693 87.474 33.2872 85.578 31.3908C84.2537 30.066 82.8528 29.6999 81.0958 30.2192C80.2575 30.467 78.3567 32.1865 78.3567 32.6971C78.3567 32.9586 77.5203 32.9905 70.6732 32.9905H62.9898V30.4348C62.9898 27.3946 62.8102 26.6874 61.734 25.4901C60.5914 24.219 59.8137 23.9927 56.5848 23.9927H53.9945V22.0784V20.1642L56.9929 17.145L59.9913 14.1257V11.3735C59.9913 9.00129 60.0318 8.62151 60.2846 8.62151C60.7951 8.62151 62.5141 6.72017 62.7619 5.88169C63.281 4.12412 62.915 2.72291 61.5906 1.39817C60.2663 0.0734353 58.8654 -0.292662 57.1084 0.226585C56.079 0.530822 54.5265 2.08369 54.2224 3.11337C53.6988 4.88594 54.0672 6.26766 55.4283 7.63738C55.9661 8.17875 56.5383 8.62151 56.6996 8.62151C56.9483 8.62151 56.9929 8.94112 56.9929 10.7232V12.825L53.9945 15.8441L50.9961 18.8634V21.4282V23.9927H47.9976H44.9992V20.806C44.9992 18.0394 45.0378 17.6193 45.2925 17.6193C45.803 17.6193 47.522 15.718 47.7698 14.8795C48.2889 13.1219 47.9229 11.7207 46.5985 10.396C44.7026 8.49948 42.2974 8.49948 40.4015 10.396C39.0771 11.7207 38.7111 13.1219 39.2302 14.8795C39.478 15.718 41.197 17.6193 41.7075 17.6193C41.9622 17.6193 42.0008 18.0394 42.0008 20.806V23.9927H39.0024H36.0039V21.4282V18.8634L33.0055 15.8441L30.0071 12.825V10.7232C30.0071 8.94112 30.0517 8.62151 30.3004 8.62151C30.8108 8.62151 32.5299 6.72017 32.7776 5.88169C33.2967 4.12412 32.9307 2.72291 31.6064 1.39817C30.2876 0.0792464 28.7528 -0.306159 27.0087 0.243643ZM29.547 3.4581C30.4767 4.38787 29.818 5.99716 28.5079 5.99716C27.7375 5.99716 27.0087 5.26815 27.0087 4.49753C27.0087 3.72691 27.7375 2.9979 28.5079 2.9979C28.8729 2.9979 29.2571 3.16792 29.547 3.4581ZM59.5313 3.4581C60.461 4.38787 59.8023 5.99716 58.4921 5.99716C57.7217 5.99716 56.9929 5.26815 56.9929 4.49753C56.9929 3.72691 57.7217 2.9979 58.4921 2.9979C58.8572 2.9979 59.2414 3.16792 59.5313 3.4581ZM44.5391 12.4559C45.4688 13.3857 44.8101 14.9949 43.5 14.9949C43.1349 14.9949 42.7508 14.8249 42.4609 14.5347C42.1708 14.2448 42.0008 13.8605 42.0008 13.4953C42.0008 13.1302 42.1708 12.7459 42.4609 12.4559C42.7508 12.1657 43.1349 11.9957 43.5 11.9957C43.8651 11.9957 44.2492 12.1657 44.5391 12.4559ZM59.5313 27.4522L59.9913 27.9122V43.4879V59.0636L59.5313 59.5236L59.0714 59.9838H43.5H27.9286L27.4687 59.5236L27.0087 59.0636V43.4879V27.9122L27.4687 27.4522L27.9286 26.992H43.5H59.0714L59.5313 27.4522ZM5.5596 33.4507C6.4893 34.3805 5.83058 35.9898 4.52046 35.9898C3.75005 35.9898 3.02124 35.2608 3.02124 34.4901C3.02124 33.7195 3.75005 32.9905 4.52046 32.9905C4.88551 32.9905 5.26969 33.1605 5.5596 33.4507ZM83.5187 33.4507C84.4484 34.3805 83.7897 35.9898 82.4795 35.9898C81.7091 35.9898 80.9803 35.2608 80.9803 34.4901C80.9803 33.7195 81.7091 32.9905 82.4795 32.9905C82.8446 32.9905 83.2288 33.1605 83.5187 33.4507ZM14.5549 42.4485C15.4846 43.3783 14.8259 44.9875 13.5157 44.9875C12.7453 44.9875 12.0165 44.2585 12.0165 43.4879C12.0165 43.1228 12.1865 42.7385 12.4766 42.4485C12.7665 42.1583 13.1507 41.9883 13.5157 41.9883C13.8808 41.9883 14.265 42.1583 14.5549 42.4485ZM74.5234 42.4485C74.8135 42.7385 74.9835 43.1228 74.9835 43.4879C74.9835 43.8531 74.8135 44.2374 74.5234 44.5273C74.2335 44.8175 73.8493 44.9875 73.4843 44.9875C73.1192 44.9875 72.735 44.8175 72.4451 44.5273C71.5154 43.5976 72.1741 41.9883 73.4843 41.9883C73.8493 41.9883 74.2335 42.1583 74.5234 42.4485ZM5.5596 51.4463C6.4893 52.376 5.83058 53.9853 4.52046 53.9853C3.75005 53.9853 3.02124 53.2563 3.02124 52.4857C3.02124 51.7151 3.75005 50.9861 4.52046 50.9861C4.88551 50.9861 5.26969 51.1561 5.5596 51.4463ZM83.5187 51.4463C83.8088 51.7363 83.9788 52.1205 83.9788 52.4857C83.9788 52.8509 83.8088 53.2351 83.5187 53.5251C83.2288 53.8153 82.8446 53.9853 82.4795 53.9853C82.1145 53.9853 81.7303 53.8153 81.4404 53.5251C81.1503 53.2351 80.9803 52.8509 80.9803 52.4857C80.9803 52.1205 81.1503 51.7363 81.4404 51.4463C81.7303 51.1561 82.1145 50.9861 82.4795 50.9861C82.8446 50.9861 83.2288 51.1561 83.5187 51.4463ZM44.5391 72.4411C44.8292 72.7311 44.9992 73.1154 44.9992 73.4805C44.9992 73.8457 44.8292 74.23 44.5391 74.5199C43.6096 75.4499 42.0008 74.791 42.0008 73.4805C42.0008 72.7099 42.7296 71.9809 43.5 71.9809C43.8651 71.9809 44.2492 72.1509 44.5391 72.4411ZM29.547 81.4389C30.4767 82.3686 29.818 83.9779 28.5079 83.9779C27.7375 83.9779 27.0087 83.2489 27.0087 82.4783C27.0087 81.7077 27.7375 80.9787 28.5079 80.9787C28.8729 80.9787 29.2571 81.1487 29.547 81.4389ZM59.5313 81.4389C59.8214 81.7289 59.9913 82.1131 59.9913 82.4783C59.9913 82.8435 59.8214 83.2277 59.5313 83.5177C59.2414 83.8079 58.8572 83.9779 58.4921 83.9779C58.1271 83.9779 57.7429 83.8079 57.453 83.5177C57.1629 83.2277 56.9929 82.8435 56.9929 82.4783C56.9929 82.1131 57.1629 81.7289 57.453 81.4389C57.7429 81.1487 58.1271 80.9787 58.4921 80.9787C58.8572 80.9787 59.2414 81.1487 59.5313 81.4389Z"/>
</mask>
<path fill-rule="evenodd" clip-rule="evenodd" d="M27.0087 0.243643C26.0889 0.533634 24.5201 2.15848 24.2381 3.11337C23.7145 4.88594 24.0829 6.26766 25.444 7.63738C25.9819 8.17875 26.554 8.62151 26.7154 8.62151C26.9682 8.62151 27.0087 9.00129 27.0087 11.3735V14.1257L30.0071 17.145L33.0055 20.1642V22.0784V23.9927H30.4505C27.2705 23.9927 26.631 24.1702 25.4094 25.3923C24.1877 26.6143 24.0102 27.2539 24.0102 30.4348V32.9905H16.3268C9.47967 32.9905 8.64329 32.9586 8.64329 32.6971C8.64329 32.5357 8.20065 31.9634 7.65943 31.4254C6.29009 30.064 4.90875 29.6954 3.13668 30.2192C2.10728 30.5234 0.554849 32.0763 0.250697 33.106C-0.268406 34.8635 0.0975893 36.2648 1.42196 37.5895C2.74632 38.9142 4.14715 39.2803 5.90423 38.7611C6.74248 38.5133 8.64329 36.7938 8.64329 36.2831C8.64329 36.0216 9.47967 35.9898 16.3268 35.9898H24.0102V38.989V41.9883H20.8244C18.0585 41.9883 17.6386 41.9497 17.6386 41.6949C17.6386 41.1843 15.7378 39.4648 14.8995 39.217C13.1424 38.6977 11.7416 39.0638 10.4172 40.3886C8.52129 42.285 8.52129 44.6908 10.4172 46.5873C11.7416 47.912 13.1424 48.2781 14.8995 47.7589C15.7378 47.511 17.6386 45.7915 17.6386 45.2809C17.6386 45.0262 18.0585 44.9875 20.8244 44.9875H24.0102V47.9868V50.9861H16.3268C9.47967 50.9861 8.64329 50.9542 8.64329 50.6927C8.64329 50.1821 6.74248 48.4626 5.90423 48.2147C4.14715 47.6955 2.74632 48.0616 1.42196 49.3863C-0.473986 51.2828 -0.473986 53.6886 1.42196 55.5851C2.74632 56.9098 4.14715 57.2759 5.90423 56.7566C6.74248 56.5088 8.64329 54.7893 8.64329 54.2787C8.64329 54.0172 9.47967 53.9853 16.3268 53.9853H24.0102V56.5411C24.0102 59.722 24.1877 60.3616 25.4094 61.5836C26.631 62.8056 27.2705 62.9831 30.4505 62.9831H33.0055V64.8974V66.8117L30.0071 69.8308L27.0087 72.8501V75.6023C27.0087 77.9745 26.9682 78.3543 26.7154 78.3543C26.2049 78.3543 24.4859 80.2557 24.2381 81.0941C23.719 82.8517 24.085 84.2529 25.4094 85.5777C26.7337 86.9024 28.1346 87.2685 29.8916 86.7492C30.921 86.445 32.4735 84.8921 32.7776 83.8625C33.3012 82.0899 32.9328 80.7082 31.5717 79.3384C31.0339 78.7973 30.4617 78.3543 30.3004 78.3543C30.0517 78.3543 30.0071 78.0347 30.0071 76.2526V74.1508L33.0055 71.1317L36.0039 68.1124V65.5477V62.9831H39.0024H42.0008V66.1698C42.0008 68.9364 41.9622 69.3565 41.7075 69.3565C41.197 69.3565 39.478 71.2579 39.2302 72.0964C38.7111 73.8539 39.0771 75.2551 40.4015 76.5799C42.2974 78.4763 44.7026 78.4763 46.5985 76.5799C47.9229 75.2551 48.2889 73.8539 47.7698 72.0964C47.522 71.2579 45.803 69.3565 45.2925 69.3565C45.0378 69.3565 44.9992 68.9364 44.9992 66.1698V62.9831H47.9976H50.9961V65.5477V68.1124L53.9945 71.1317L56.9929 74.1508V76.2526C56.9929 78.0347 56.9483 78.3543 56.6996 78.3543C56.1892 78.3543 54.4701 80.2557 54.2224 81.0941C53.7033 82.8517 54.0693 84.2529 55.3936 85.5777C57.2896 87.4741 59.6947 87.4741 61.5906 85.5777C63.5012 83.6666 63.4879 81.2825 61.556 79.3384C61.0181 78.7973 60.446 78.3543 60.2846 78.3543C60.0318 78.3543 59.9913 77.9745 59.9913 75.6023V72.8501L56.9929 69.8308L53.9945 66.8117V64.8974V62.9831H56.5848C59.8137 62.9831 60.5914 62.7568 61.734 61.4857C62.8102 60.2885 62.9898 59.5812 62.9898 56.5411V53.9853H70.6732C77.5203 53.9853 78.3567 54.0172 78.3567 54.2787C78.3567 54.7893 80.2575 56.5088 81.0958 56.7566C82.8528 57.2759 84.2537 56.9098 85.578 55.5851C87.474 53.6886 87.474 51.2828 85.578 49.3863C83.6675 47.4752 81.2841 47.4886 79.3406 49.421C78.7994 49.959 78.3567 50.5313 78.3567 50.6927C78.3567 50.9542 77.5203 50.9861 70.6732 50.9861H62.9898V47.9868V44.9875H66.1756C68.9415 44.9875 69.3614 45.0262 69.3614 45.2809C69.3614 45.7915 71.2622 47.511 72.1005 47.7589C73.8576 48.2781 75.2584 47.912 76.5828 46.5873C78.4787 44.6908 78.4787 42.285 76.5828 40.3886C75.2584 39.0638 73.8576 38.6977 72.1005 39.217C71.2622 39.4648 69.3614 41.1843 69.3614 41.6949C69.3614 41.9497 68.9415 41.9883 66.1756 41.9883H62.9898V38.989V35.9898H70.6732C77.5203 35.9898 78.3567 36.0216 78.3567 36.2831C78.3567 36.7938 80.2575 38.5133 81.0958 38.7611C82.8528 39.2803 84.2537 38.9142 85.578 37.5895C87.474 35.693 87.474 33.2872 85.578 31.3908C84.2537 30.066 82.8528 29.6999 81.0958 30.2192C80.2575 30.467 78.3567 32.1865 78.3567 32.6971C78.3567 32.9586 77.5203 32.9905 70.6732 32.9905H62.9898V30.4348C62.9898 27.3946 62.8102 26.6874 61.734 25.4901C60.5914 24.219 59.8137 23.9927 56.5848 23.9927H53.9945V22.0784V20.1642L56.9929 17.145L59.9913 14.1257V11.3735C59.9913 9.00129 60.0318 8.62151 60.2846 8.62151C60.7951 8.62151 62.5141 6.72017 62.7619 5.88169C63.281 4.12412 62.915 2.72291 61.5906 1.39817C60.2663 0.0734353 58.8654 -0.292662 57.1084 0.226585C56.079 0.530822 54.5265 2.08369 54.2224 3.11337C53.6988 4.88594 54.0672 6.26766 55.4283 7.63738C55.9661 8.17875 56.5383 8.62151 56.6996 8.62151C56.9483 8.62151 56.9929 8.94112 56.9929 10.7232V12.825L53.9945 15.8441L50.9961 18.8634V21.4282V23.9927H47.9976H44.9992V20.806C44.9992 18.0394 45.0378 17.6193 45.2925 17.6193C45.803 17.6193 47.522 15.718 47.7698 14.8795C48.2889 13.1219 47.9229 11.7207 46.5985 10.396C44.7026 8.49948 42.2974 8.49948 40.4015 10.396C39.0771 11.7207 38.7111 13.1219 39.2302 14.8795C39.478 15.718 41.197 17.6193 41.7075 17.6193C41.9622 17.6193 42.0008 18.0394 42.0008 20.806V23.9927H39.0024H36.0039V21.4282V18.8634L33.0055 15.8441L30.0071 12.825V10.7232C30.0071 8.94112 30.0517 8.62151 30.3004 8.62151C30.8108 8.62151 32.5299 6.72017 32.7776 5.88169C33.2967 4.12412 32.9307 2.72291 31.6064 1.39817C30.2876 0.0792464 28.7528 -0.306159 27.0087 0.243643ZM29.547 3.4581C30.4767 4.38787 29.818 5.99716 28.5079 5.99716C27.7375 5.99716 27.0087 5.26815 27.0087 4.49753C27.0087 3.72691 27.7375 2.9979 28.5079 2.9979C28.8729 2.9979 29.2571 3.16792 29.547 3.4581ZM59.5313 3.4581C60.461 4.38787 59.8023 5.99716 58.4921 5.99716C57.7217 5.99716 56.9929 5.26815 56.9929 4.49753C56.9929 3.72691 57.7217 2.9979 58.4921 2.9979C58.8572 2.9979 59.2414 3.16792 59.5313 3.4581ZM44.5391 12.4559C45.4688 13.3857 44.8101 14.9949 43.5 14.9949C43.1349 14.9949 42.7508 14.8249 42.4609 14.5347C42.1708 14.2448 42.0008 13.8605 42.0008 13.4953C42.0008 13.1302 42.1708 12.7459 42.4609 12.4559C42.7508 12.1657 43.1349 11.9957 43.5 11.9957C43.8651 11.9957 44.2492 12.1657 44.5391 12.4559ZM59.5313 27.4522L59.9913 27.9122V43.4879V59.0636L59.5313 59.5236L59.0714 59.9838H43.5H27.9286L27.4687 59.5236L27.0087 59.0636V43.4879V27.9122L27.4687 27.4522L27.9286 26.992H43.5H59.0714L59.5313 27.4522ZM5.5596 33.4507C6.4893 34.3805 5.83058 35.9898 4.52046 35.9898C3.75005 35.9898 3.02124 35.2608 3.02124 34.4901C3.02124 33.7195 3.75005 32.9905 4.52046 32.9905C4.88551 32.9905 5.26969 33.1605 5.5596 33.4507ZM83.5187 33.4507C84.4484 34.3805 83.7897 35.9898 82.4795 35.9898C81.7091 35.9898 80.9803 35.2608 80.9803 34.4901C80.9803 33.7195 81.7091 32.9905 82.4795 32.9905C82.8446 32.9905 83.2288 33.1605 83.5187 33.4507ZM14.5549 42.4485C15.4846 43.3783 14.8259 44.9875 13.5157 44.9875C12.7453 44.9875 12.0165 44.2585 12.0165 43.4879C12.0165 43.1228 12.1865 42.7385 12.4766 42.4485C12.7665 42.1583 13.1507 41.9883 13.5157 41.9883C13.8808 41.9883 14.265 42.1583 14.5549 42.4485ZM74.5234 42.4485C74.8135 42.7385 74.9835 43.1228 74.9835 43.4879C74.9835 43.8531 74.8135 44.2374 74.5234 44.5273C74.2335 44.8175 73.8493 44.9875 73.4843 44.9875C73.1192 44.9875 72.735 44.8175 72.4451 44.5273C71.5154 43.5976 72.1741 41.9883 73.4843 41.9883C73.8493 41.9883 74.2335 42.1583 74.5234 42.4485ZM5.5596 51.4463C6.4893 52.376 5.83058 53.9853 4.52046 53.9853C3.75005 53.9853 3.02124 53.2563 3.02124 52.4857C3.02124 51.7151 3.75005 50.9861 4.52046 50.9861C4.88551 50.9861 5.26969 51.1561 5.5596 51.4463ZM83.5187 51.4463C83.8088 51.7363 83.9788 52.1205 83.9788 52.4857C83.9788 52.8509 83.8088 53.2351 83.5187 53.5251C83.2288 53.8153 82.8446 53.9853 82.4795 53.9853C82.1145 53.9853 81.7303 53.8153 81.4404 53.5251C81.1503 53.2351 80.9803 52.8509 80.9803 52.4857C80.9803 52.1205 81.1503 51.7363 81.4404 51.4463C81.7303 51.1561 82.1145 50.9861 82.4795 50.9861C82.8446 50.9861 83.2288 51.1561 83.5187 51.4463ZM44.5391 72.4411C44.8292 72.7311 44.9992 73.1154 44.9992 73.4805C44.9992 73.8457 44.8292 74.23 44.5391 74.5199C43.6096 75.4499 42.0008 74.791 42.0008 73.4805C42.0008 72.7099 42.7296 71.9809 43.5 71.9809C43.8651 71.9809 44.2492 72.1509 44.5391 72.4411ZM29.547 81.4389C30.4767 82.3686 29.818 83.9779 28.5079 83.9779C27.7375 83.9779 27.0087 83.2489 27.0087 82.4783C27.0087 81.7077 27.7375 80.9787 28.5079 80.9787C28.8729 80.9787 29.2571 81.1487 29.547 81.4389ZM59.5313 81.4389C59.8214 81.7289 59.9913 82.1131 59.9913 82.4783C59.9913 82.8435 59.8214 83.2277 59.5313 83.5177C59.2414 83.8079 58.8572 83.9779 58.4921 83.9779C58.1271 83.9779 57.7429 83.8079 57.453 83.5177C57.1629 83.2277 56.9929 82.8435 56.9929 82.4783C56.9929 82.1131 57.1629 81.7289 57.453 81.4389C57.7429 81.1487 58.1271 80.9787 58.4921 80.9787C58.8572 80.9787 59.2414 81.1487 59.5313 81.4389Z" fill="white" stroke="white" stroke-width="1.40323" mask="url(#path-1-inside-1_313_2678)"/>
</svg>
