<svg width="73" height="91" viewBox="0 0 73 91" fill="none" xmlns="http://www.w3.org/2000/svg">
<mask id="path-1-inside-1_313_2721" fill="white">
<path fill-rule="evenodd" clip-rule="evenodd" d="M17.5639 0.527075C16.9046 1.64735 13.9446 5.9593 11.2482 9.72677C6.14302 16.8601 4.41995 19.5581 2.5986 23.271C1.27222 25.9747 0.481187 28.2263 0.153919 30.2292C-0.15045 32.0916 0.0109305 35.1999 0.51148 37.1201C0.993998 38.9707 2.21634 41.5704 3.32418 43.1021L3.60764 43.4939C3.90294 43.9021 4.48029 43.9789 4.87199 43.6621C5.2685 43.3414 5.73461 42.9619 5.90771 42.8187C6.2018 42.5758 6.15961 42.4657 5.27012 41.1547C3.59898 38.6918 2.68317 35.7509 2.68317 32.8481C2.68317 27.947 5.06781 23.0438 12.5688 12.5218C14.1877 10.2508 16.0539 7.60717 16.716 6.64716L17.6281 5.32438C17.7713 5.11677 18.076 5.11101 18.2269 5.31307C21.6638 9.91675 28.4548 19.8939 29.8875 22.4451C31.7536 25.7679 32.9359 29.0515 33.2498 31.7837C33.4999 33.9609 32.5766 37.9454 31.3194 40.1129C29.3563 43.4975 26.1172 46.0503 22.2471 47.2623C20.3203 47.8659 16.6556 47.9585 14.5296 47.4575C12.6175 47.0071 10.6189 46.1225 9.10556 45.0572L9.06665 45.0298C8.45532 44.5994 7.61675 44.7059 7.1324 45.2754L6.69694 45.7875C6.46672 46.0583 6.50389 46.4653 6.77934 46.6899C8.70996 48.2634 11.7783 49.6439 14.5983 50.2076C16.6259 50.613 20.5643 50.4814 22.6078 49.9399C27.4369 48.6605 31.8582 45.0518 34.065 40.5887C36.4297 35.8066 36.5791 31.1784 34.5373 25.9628C32.9065 21.7974 30.5444 17.9302 24.3505 9.28492C22.8095 7.13419 20.7496 4.17643 19.7729 2.71196C18.7961 1.24748 17.9753 0.0281259 17.9488 0.00197779C17.9223 -0.0241703 17.749 0.212052 17.5639 0.527075ZM42.0816 10.4731C41.3874 11.5648 39.6151 14.1787 38.1434 16.2819C36.6715 18.385 35.3537 20.2767 35.2149 20.4856C34.9769 20.844 35.0247 20.9086 36.0568 21.6267C36.6585 22.0454 37.1736 22.3608 37.2014 22.3275C37.3767 22.1185 43.1209 13.8804 43.2489 13.6549C43.3358 13.5015 43.4393 13.4156 43.4792 13.4636C43.519 13.5118 44.4065 14.7919 45.4516 16.3083C46.4967 17.8247 49.361 21.867 51.8167 25.2911C64.4743 42.9402 68.8087 50.99 69.9546 58.9772C70.227 60.8755 70.0799 65.0217 69.6731 66.9147C67.901 75.1595 62.638 81.9657 55.2444 85.5741C46.1761 89.9999 35.4399 89.0138 27.372 83.0139C26.0655 82.0424 26.1158 82.0335 24.9872 83.4376L24.86 83.5958C24.6226 83.891 24.6681 84.3225 24.9619 84.5617C26.2755 85.6312 28.8778 87.2336 30.7082 88.1C38.8224 91.9413 47.9513 91.9675 56.0124 88.1728C64.373 84.2372 70.3386 76.7053 72.2864 67.6262C72.8805 64.8575 72.9716 60.5769 72.4948 57.8429C71.0079 49.3177 66.54 41.1237 53.5325 23.0677C49.5999 17.6086 44.7163 10.5326 43.9357 9.16254C43.7224 8.78793 43.5019 8.48322 43.4458 8.485C43.3898 8.48696 42.7758 9.38151 42.0816 10.4731ZM26.5216 30.0494C26.5516 30.7779 27.1358 31.3615 27.8643 31.3906L27.8819 31.3913C28.5953 31.4198 29.1892 30.8492 29.1892 30.1353V30.1017C29.1892 29.3606 28.5884 28.7598 27.8473 28.7598H27.8289H27.7593C27.0552 28.7598 26.4927 29.3459 26.5216 30.0494ZM26.4845 34.6863C26.4845 35.0111 26.3538 35.7114 26.1938 36.2428C25.2378 39.4222 22.7874 41.6348 19.4829 42.3027C18.835 42.4337 18.3916 43.0342 18.4571 43.692L18.4663 43.7846C18.535 44.4727 18.6232 45.0696 18.6625 45.1111C18.8564 45.3163 21.6968 44.5129 22.9684 43.8933C26.3653 42.2378 28.7386 38.9184 29.1144 35.2968C29.181 34.6547 28.6773 34.0961 28.0318 34.0961H27.8617H27.0747C26.7487 34.0961 26.4845 34.3604 26.4845 34.6863ZM15.3163 53.7227C15.2281 53.9513 14.9297 55.092 14.6531 56.2575C14.196 58.1839 14.1495 58.6919 14.1417 61.8452C14.135 64.505 14.2115 65.7286 14.4693 67.0926C15.1686 70.7898 16.8866 74.982 18.9458 78.0148C19.937 79.4747 22.1088 82.1233 22.3146 82.1233C22.4736 82.1233 24.1404 80.4628 24.1404 80.3043C24.1404 80.2399 23.7234 79.7225 23.2136 79.1542C21.9489 77.7443 20.127 74.9831 19.2671 73.1732C17.6829 69.8383 16.9458 66.7955 16.7972 62.9795C16.6888 60.1923 16.8799 58.4201 17.5687 55.8259C17.8113 54.9122 18.0098 54.1391 18.0098 54.108C18.0098 54.0381 15.8341 53.307 15.6262 53.307C15.5438 53.307 15.4044 53.4941 15.3163 53.7227ZM63.4487 57.8429C63.4487 58.5797 64.046 59.177 64.7828 59.177H64.801H64.8193C65.5561 59.177 66.1534 58.5797 66.1534 57.8429C66.1534 57.1061 65.5561 56.5088 64.8193 56.5088H64.801H64.7828C64.046 56.5088 63.4487 57.1061 63.4487 57.8429ZM63.2938 63.7887C62.7932 68.3407 61.3067 71.8597 58.3552 75.4792C55.4285 79.0681 50.4193 81.9461 45.8682 82.6534C45.174 82.7612 44.3387 82.8905 44.0122 82.9405C43.6742 82.9924 43.4292 83.2901 43.4433 83.6318L43.4713 84.3117L43.4906 84.7795C43.5089 85.225 43.8906 85.5679 44.3355 85.5387C49.3871 85.2074 54.9042 82.6843 58.7555 78.9439C60.8264 76.9326 62.3535 74.8582 63.5444 72.4382C64.951 69.58 65.6323 67.2808 65.9714 64.2465C66.2632 61.6363 66.3625 61.8452 64.8304 61.8452C64.0775 61.8452 63.4452 62.4118 63.3629 63.1602L63.2938 63.7887Z"/>
</mask>
<path fill-rule="evenodd" clip-rule="evenodd" d="M17.5639 0.527075C16.9046 1.64735 13.9446 5.9593 11.2482 9.72677C6.14302 16.8601 4.41995 19.5581 2.5986 23.271C1.27222 25.9747 0.481187 28.2263 0.153919 30.2292C-0.15045 32.0916 0.0109305 35.1999 0.51148 37.1201C0.993998 38.9707 2.21634 41.5704 3.32418 43.1021L3.60764 43.4939C3.90294 43.9021 4.48029 43.9789 4.87199 43.6621C5.2685 43.3414 5.73461 42.9619 5.90771 42.8187C6.2018 42.5758 6.15961 42.4657 5.27012 41.1547C3.59898 38.6918 2.68317 35.7509 2.68317 32.8481C2.68317 27.947 5.06781 23.0438 12.5688 12.5218C14.1877 10.2508 16.0539 7.60717 16.716 6.64716L17.6281 5.32438C17.7713 5.11677 18.076 5.11101 18.2269 5.31307C21.6638 9.91675 28.4548 19.8939 29.8875 22.4451C31.7536 25.7679 32.9359 29.0515 33.2498 31.7837C33.4999 33.9609 32.5766 37.9454 31.3194 40.1129C29.3563 43.4975 26.1172 46.0503 22.2471 47.2623C20.3203 47.8659 16.6556 47.9585 14.5296 47.4575C12.6175 47.0071 10.6189 46.1225 9.10556 45.0572L9.06665 45.0298C8.45532 44.5994 7.61675 44.7059 7.1324 45.2754L6.69694 45.7875C6.46672 46.0583 6.50389 46.4653 6.77934 46.6899C8.70996 48.2634 11.7783 49.6439 14.5983 50.2076C16.6259 50.613 20.5643 50.4814 22.6078 49.9399C27.4369 48.6605 31.8582 45.0518 34.065 40.5887C36.4297 35.8066 36.5791 31.1784 34.5373 25.9628C32.9065 21.7974 30.5444 17.9302 24.3505 9.28492C22.8095 7.13419 20.7496 4.17643 19.7729 2.71196C18.7961 1.24748 17.9753 0.0281259 17.9488 0.00197779C17.9223 -0.0241703 17.749 0.212052 17.5639 0.527075ZM42.0816 10.4731C41.3874 11.5648 39.6151 14.1787 38.1434 16.2819C36.6715 18.385 35.3537 20.2767 35.2149 20.4856C34.9769 20.844 35.0247 20.9086 36.0568 21.6267C36.6585 22.0454 37.1736 22.3608 37.2014 22.3275C37.3767 22.1185 43.1209 13.8804 43.2489 13.6549C43.3358 13.5015 43.4393 13.4156 43.4792 13.4636C43.519 13.5118 44.4065 14.7919 45.4516 16.3083C46.4967 17.8247 49.361 21.867 51.8167 25.2911C64.4743 42.9402 68.8087 50.99 69.9546 58.9772C70.227 60.8755 70.0799 65.0217 69.6731 66.9147C67.901 75.1595 62.638 81.9657 55.2444 85.5741C46.1761 89.9999 35.4399 89.0138 27.372 83.0139C26.0655 82.0424 26.1158 82.0335 24.9872 83.4376L24.86 83.5958C24.6226 83.891 24.6681 84.3225 24.9619 84.5617C26.2755 85.6312 28.8778 87.2336 30.7082 88.1C38.8224 91.9413 47.9513 91.9675 56.0124 88.1728C64.373 84.2372 70.3386 76.7053 72.2864 67.6262C72.8805 64.8575 72.9716 60.5769 72.4948 57.8429C71.0079 49.3177 66.54 41.1237 53.5325 23.0677C49.5999 17.6086 44.7163 10.5326 43.9357 9.16254C43.7224 8.78793 43.5019 8.48322 43.4458 8.485C43.3898 8.48696 42.7758 9.38151 42.0816 10.4731ZM26.5216 30.0494C26.5516 30.7779 27.1358 31.3615 27.8643 31.3906L27.8819 31.3913C28.5953 31.4198 29.1892 30.8492 29.1892 30.1353V30.1017C29.1892 29.3606 28.5884 28.7598 27.8473 28.7598H27.8289H27.7593C27.0552 28.7598 26.4927 29.3459 26.5216 30.0494ZM26.4845 34.6863C26.4845 35.0111 26.3538 35.7114 26.1938 36.2428C25.2378 39.4222 22.7874 41.6348 19.4829 42.3027C18.835 42.4337 18.3916 43.0342 18.4571 43.692L18.4663 43.7846C18.535 44.4727 18.6232 45.0696 18.6625 45.1111C18.8564 45.3163 21.6968 44.5129 22.9684 43.8933C26.3653 42.2378 28.7386 38.9184 29.1144 35.2968C29.181 34.6547 28.6773 34.0961 28.0318 34.0961H27.8617H27.0747C26.7487 34.0961 26.4845 34.3604 26.4845 34.6863ZM15.3163 53.7227C15.2281 53.9513 14.9297 55.092 14.6531 56.2575C14.196 58.1839 14.1495 58.6919 14.1417 61.8452C14.135 64.505 14.2115 65.7286 14.4693 67.0926C15.1686 70.7898 16.8866 74.982 18.9458 78.0148C19.937 79.4747 22.1088 82.1233 22.3146 82.1233C22.4736 82.1233 24.1404 80.4628 24.1404 80.3043C24.1404 80.2399 23.7234 79.7225 23.2136 79.1542C21.9489 77.7443 20.127 74.9831 19.2671 73.1732C17.6829 69.8383 16.9458 66.7955 16.7972 62.9795C16.6888 60.1923 16.8799 58.4201 17.5687 55.8259C17.8113 54.9122 18.0098 54.1391 18.0098 54.108C18.0098 54.0381 15.8341 53.307 15.6262 53.307C15.5438 53.307 15.4044 53.4941 15.3163 53.7227ZM63.4487 57.8429C63.4487 58.5797 64.046 59.177 64.7828 59.177H64.801H64.8193C65.5561 59.177 66.1534 58.5797 66.1534 57.8429C66.1534 57.1061 65.5561 56.5088 64.8193 56.5088H64.801H64.7828C64.046 56.5088 63.4487 57.1061 63.4487 57.8429ZM63.2938 63.7887C62.7932 68.3407 61.3067 71.8597 58.3552 75.4792C55.4285 79.0681 50.4193 81.9461 45.8682 82.6534C45.174 82.7612 44.3387 82.8905 44.0122 82.9405C43.6742 82.9924 43.4292 83.2901 43.4433 83.6318L43.4713 84.3117L43.4906 84.7795C43.5089 85.225 43.8906 85.5679 44.3355 85.5387C49.3871 85.2074 54.9042 82.6843 58.7555 78.9439C60.8264 76.9326 62.3535 74.8582 63.5444 72.4382C64.951 69.58 65.6323 67.2808 65.9714 64.2465C66.2632 61.6363 66.3625 61.8452 64.8304 61.8452C64.0775 61.8452 63.4452 62.4118 63.3629 63.1602L63.2938 63.7887Z" fill="white" stroke="white" stroke-width="0.91" mask="url(#path-1-inside-1_313_2721)"/>
</svg>
