<svg width="20" height="20" viewBox="0 0 20 20" fill="none" xmlns="http://www.w3.org/2000/svg">
<path d="M4.56795 1.66032C4.49416 1.5654 4.40101 1.48726 4.29471 1.43111C4.1884 1.37495 4.07136 1.34205 3.95136 1.3346C3.83137 1.32716 3.71116 1.34533 3.59872 1.38791C3.48629 1.43049 3.3842 1.4965 3.29924 1.58157L2.00678 2.87528C1.40304 3.48026 1.18055 4.33648 1.44429 5.08771C2.53893 8.1971 4.31957 11.0201 6.65413 13.3475C8.98146 15.682 11.8045 17.4626 14.9139 18.5573C15.6651 18.821 16.5213 18.5985 17.1263 17.9948L18.4188 16.7023C18.5038 16.6174 18.5698 16.5153 18.6124 16.4029C18.655 16.2904 18.6732 16.1702 18.6657 16.0502C18.6583 15.9302 18.6254 15.8132 18.5692 15.7069C18.5131 15.6006 18.4349 15.5074 18.34 15.4336L15.4564 13.1912C15.3549 13.1126 15.237 13.058 15.1114 13.0315C14.9858 13.0051 14.8559 13.0076 14.7314 13.0387L11.994 13.7224C11.6286 13.8138 11.2458 13.8089 10.8828 13.7084C10.5198 13.6078 10.1891 13.415 9.92278 13.1487L6.85287 10.0776C6.58634 9.81136 6.3933 9.48067 6.29253 9.11771C6.19177 8.75474 6.18672 8.37186 6.27789 8.00637L6.96287 5.26895C6.994 5.14445 6.99645 5.01451 6.97004 4.88892C6.94362 4.76333 6.88903 4.64539 6.81038 4.54398L4.56795 1.66032ZM2.35551 0.639099C2.57425 0.420292 2.83703 0.250524 3.12641 0.141066C3.41579 0.0316079 3.72515 -0.0150348 4.03394 0.00423491C4.34273 0.0235047 4.64388 0.108246 4.91741 0.252832C5.19094 0.397418 5.43058 0.598539 5.62041 0.842842L7.86284 3.72525C8.27408 4.25399 8.41908 4.94271 8.25658 5.59269L7.57285 8.33011C7.5375 8.47189 7.53941 8.62041 7.57839 8.76123C7.61738 8.90206 7.69211 9.03041 7.79534 9.13383L10.8665 12.205C10.97 12.3084 11.0986 12.3833 11.2397 12.4223C11.3807 12.4613 11.5295 12.4631 11.6715 12.4275L14.4076 11.7438C14.7284 11.6636 15.0632 11.6573 15.3867 11.7255C15.7102 11.7937 16.014 11.9346 16.2751 12.1375L19.1575 14.3799C20.1937 15.1861 20.2887 16.7173 19.3612 17.6436L18.0688 18.936C17.1438 19.861 15.7613 20.2672 14.4726 19.8135C11.1742 18.6529 8.17942 16.7646 5.71041 14.2887C3.2346 11.82 1.34631 8.82567 0.185583 5.5277C-0.266903 4.24024 0.139334 2.85653 1.06431 1.93156L2.35676 0.639099H2.35551Z" fill="white"/>
</svg>
