<svg width="34" height="11" viewBox="0 0 34 11" fill="none" xmlns="http://www.w3.org/2000/svg">
<path fill-rule="evenodd" clip-rule="evenodd" d="M0.17925 2.0187C0.41925 2.2577 1.61725 2.97571 1.85625 3.69371C2.09625 4.41071 2.57625 9.00071 4.01425 10.1977C5.49725 11.4297 11.0912 10.9707 12.1622 10.4377C14.5592 9.24271 14.8532 5.3827 15.2772 3.6927C15.5162 2.7357 16.9542 2.7357 16.9542 2.7357C16.9542 2.7357 18.3923 2.7357 18.6322 3.6917C19.0562 5.3827 19.3522 9.2537 21.7472 10.4467C22.8193 10.9817 28.4132 11.4407 29.8982 10.2087C31.3342 9.01171 31.8132 4.4097 32.0532 3.6917C32.2912 2.9747 33.4913 2.25671 33.7303 2.0177C33.9713 1.77871 33.9713 0.821705 33.7303 0.581705C33.2513 0.103705 27.5963 -0.322295 21.5072 0.342705C20.2922 0.475705 19.8302 0.820704 16.9532 0.820704C14.0782 0.820704 13.6143 0.474705 12.4003 0.342705C6.31525 -0.321295 0.65925 0.104704 0.17925 0.582704C-0.05975 0.821705 -0.05975 1.7797 0.17925 2.0187Z" fill="white"/>
</svg>
